<svg width="445" height="446" viewBox="0 0 445 446" fill="none" xmlns="http://www.w3.org/2000/svg">
<path d="M437.24 241.936L420.247 224.942C418.139 222.834 414.721 222.834 412.613 224.942L228.495 409.059C226.388 411.167 226.387 414.585 228.495 416.693L245.489 433.687L437.24 241.936Z" fill="#FBF6F1"/>
<path d="M345.779 333.39L324.973 312.57L296.602 340.942L315.683 371.377L345.779 333.39Z" fill="#EEE2D8"/>
<path d="M245.488 433.684L248.605 436.8C250.713 438.908 254.131 438.908 256.239 436.8L440.356 252.683C442.464 250.575 442.464 247.157 440.356 245.049L437.239 241.932L245.488 433.684Z" fill="#EEE2D8"/>
<path d="M245.498 228.049L228.504 245.043C226.396 247.151 226.396 250.568 228.504 252.676L412.622 436.794C414.73 438.902 418.147 438.902 420.255 436.794L437.249 419.8L245.498 228.049Z" fill="#FBF6F1"/>
<path d="M437.242 419.805L440.359 416.688C442.467 414.58 442.467 411.162 440.359 409.054L256.242 224.937C254.134 222.829 250.716 222.829 248.608 224.937L245.491 228.054L437.242 419.805Z" fill="#EEE2D8"/>
<path d="M156.484 301.645L146.379 291.54C144.271 289.432 140.854 289.432 138.746 291.54L18.1356 412.15C16.0276 414.258 16.0276 417.675 18.1355 419.783L28.2407 429.888L156.484 301.645Z" fill="#FBF6F1"/>
<path d="M95.3102 362.794L81.3869 348.883L62.4219 367.86L75.1781 388.202L95.3102 362.794Z" fill="#EEE2D8"/>
<path d="M28.2371 429.882L29.0582 430.703C31.1661 432.811 34.5839 432.811 36.6918 430.703L157.302 310.093C159.41 307.985 159.41 304.567 157.302 302.459L156.481 301.638L28.2371 429.882Z" fill="#EEE2D8"/>
<path d="M28.2462 292.355L18.1411 302.46C16.0331 304.568 16.0331 307.986 18.1411 310.094L138.751 430.704C140.859 432.812 144.277 432.812 146.385 430.704L156.49 420.599L28.2462 292.355Z" fill="#FBF6F1"/>
<path d="M156.475 420.587L157.296 419.766C159.404 417.658 159.404 414.24 157.296 412.132L34.7779 289.614C33.7239 288.56 32.0151 288.56 30.9611 289.614L28.2316 292.343L156.475 420.587Z" fill="#EEE2D8"/>
<path d="M425.524 117.775C423.409 117.784 421.362 116.689 419.826 115.234C418.011 113.515 415.444 112.523 412.336 112.523C408.806 112.609 405.379 113.725 402.474 115.732L-nan -nanL402.474 115.732C400.513 109.15 394.643 104.75 386.45 104.75C375.832 104.75 364.78 112.13 359.55 122.039C358.662 123.722 356.784 124.675 354.881 124.684H353.784C343.735 125.361 344.447 140.533 354.566 140.533H426.283C427.524 140.537 428.749 140.248 429.858 139.691C430.967 139.133 431.929 138.322 432.667 137.323C433.904 135.643 434.848 133.764 435.456 131.768C437.673 124.042 433.285 117.775 425.524 117.775Z" fill="#EEE2D8"/>
<path d="M183.522 65.8329C180.21 64.1747 177.233 61.5113 175.86 58.0715C171.988 48.3757 162.645 42.0273 149.948 42.0273C139.821 42.0273 129.442 46.0604 120.78 52.616C117.415 55.1624 112.635 55.0738 108.504 54.2139C107.38 53.9801 106.225 53.8771 105.061 53.9131C94.525 53.9131 83.4757 62.4533 80.3648 72.989C79.9033 74.5441 79.6419 76.1516 79.5871 77.7727L-nan -nanL79.5871 77.7727L79.367 77.9194C70.6508 83.789 74.9649 97.5677 85.5887 97.5677H178.43C180.201 97.582 181.948 97.1532 183.511 96.3203C185.074 95.4874 186.405 94.2768 187.381 92.7987C188.831 90.5852 189.953 88.1732 190.712 85.6379C193.273 76.7836 190.178 69.1651 183.522 65.8329Z" fill="#FBF6F1"/>
<path d="M258.959 161.447C255.51 160.087 252.554 157.392 251.362 153.881C246.834 140.534 234.543 131.676 217.568 131.676C203.94 131.676 189.974 137.371 178.573 146.512C175.274 149.158 170.519 149.124 166.499 147.809C164.451 147.139 162.285 146.822 160.093 146.892C146.613 146.892 132.436 157.829 128.457 171.323C127.897 173.21 127.566 175.157 127.472 177.122C127.463 177.326 127.357 177.514 127.186 177.626C115.989 185.241 121.539 202.795 135.074 202.795H248.903C253.518 202.827 258.022 201.375 261.749 198.653C265.454 195.946 268.196 192.127 269.576 187.753C269.593 187.701 269.601 187.646 269.601 187.591C269.601 187.537 269.609 187.483 269.625 187.432C273.224 175.449 268.563 165.234 258.959 161.447Z" fill="#EEE2D8"/>
<path d="M353.85 250.962H354.173L354.187 250.64L356.21 204.615C356.623 195.209 349.109 187.358 339.695 187.358H305.674C296.544 187.358 289.143 194.759 289.143 203.889V250.625V250.962H289.48H353.85Z" fill="#666666" stroke="#666666" stroke-width="0.67473"/>
<path d="M340.222 229.007C332.211 228.921 325.582 235.344 325.416 243.354L323.943 314.344C323.777 322.354 330.136 328.918 338.148 329.005C346.159 329.091 352.788 322.668 352.955 314.658L354.427 243.668C354.594 235.657 348.234 229.094 340.222 229.007Z" fill="#666666" stroke="#666666" stroke-width="0.67473"/>
<path d="M349.935 419.951C349.931 412.098 343.562 405.735 335.709 405.739C327.856 405.743 321.493 412.112 321.497 419.965C321.501 427.818 327.87 434.181 335.723 434.177C343.576 434.174 349.939 427.804 349.935 419.951Z" fill="#FFB598" stroke="#FFB598" stroke-width="0.67473"/>
<path d="M318.56 422.668C318.559 421.177 319.767 419.968 321.258 419.967L352.269 419.952C352.93 419.952 353.568 420.194 354.062 420.633L371.246 435.883C373.103 437.531 371.938 440.599 369.456 440.601L321.267 440.624C319.777 440.625 318.568 439.417 318.567 437.926L318.56 422.668Z" fill="#662D03"/>
<path d="M351.526 416.596L351.891 416.632L351.897 416.265L353.258 318.312C353.371 310.201 346.955 303.5 338.847 303.261C330.713 303.02 323.901 309.369 323.568 317.499L319.659 413.15L319.646 413.468L319.963 413.499L351.526 416.596Z" fill="#666666" stroke="#666666" stroke-width="0.67473"/>
<path d="M352.103 318.027C352.863 310.425 347.316 303.647 339.715 302.888C332.114 302.128 325.336 307.675 324.576 315.276C323.817 322.877 329.363 329.655 336.964 330.415C344.566 331.174 351.344 325.628 352.103 318.027Z" fill="#666666" stroke="#666666" stroke-width="0.67473"/>
<path d="M306.813 229.131C314.628 230.898 319.593 238.679 317.904 246.511L302.931 315.92C301.242 323.752 293.537 328.668 285.723 326.901C277.908 325.134 272.943 317.352 274.632 309.521L289.605 240.112C291.294 232.28 298.999 227.364 306.813 229.131Z" fill="#666666" stroke="#666666" stroke-width="0.67473"/>
<path d="M253.386 411.68C255.674 404.167 263.619 399.932 271.131 402.22C278.644 404.508 282.879 412.453 280.591 419.965C278.303 427.478 270.358 431.713 262.846 429.425L255.672 427.24C252.122 426.159 250.12 422.404 251.201 418.853L253.386 411.68Z" fill="#FFB598" stroke="#FFB598" stroke-width="0.67473"/>
<path d="M284.348 415.038C284.048 413.578 282.621 412.638 281.161 412.938L250.784 419.183C250.137 419.316 249.561 419.681 249.166 420.211L235.414 438.616C233.928 440.604 235.688 443.374 238.119 442.875L285.32 433.171C286.781 432.871 287.721 431.444 287.421 429.984L284.348 415.038Z" fill="#662D03"/>
<path d="M251.645 411.287L251.204 411.308L251.3 410.877L272.488 316.029C274.252 308.133 282.024 303.113 289.946 304.752C297.924 306.403 303.072 314.186 301.469 322.174L283.929 409.545L283.877 409.803L283.613 409.815L251.645 411.287Z" fill="#666666" stroke="#666666" stroke-width="0.67473"/>
<path d="M273.676 316.06C274.696 308.489 281.661 303.179 289.232 304.2C296.802 305.22 302.112 312.185 301.092 319.755C300.072 327.326 293.107 332.636 285.536 331.616C277.966 330.595 272.656 323.631 273.676 316.06Z" fill="#666666" stroke="#666666" stroke-width="0.67473"/>
<path d="M332.41 249.105C329.497 250.864 321.946 251.528 317.698 251.38L315.75 261.268" stroke="white" stroke-width="0.67473" stroke-linecap="round" stroke-linejoin="round"/>
<path d="M280.117 144.03C286.465 142.537 292.873 146.461 294.429 152.794C295.984 159.126 292.1 165.471 285.751 166.963L236.609 178.52C230.261 180.013 223.853 176.089 222.297 169.756C220.742 163.423 224.626 157.079 230.975 155.586L280.117 144.03Z" fill="#FFB598" stroke="#FFB598" stroke-width="0.67473"/>
<mask id="mask0_4307_241169" style="mask-type:alpha" maskUnits="userSpaceOnUse" x="221" y="143" width="75" height="37">
<path d="M280.121 144.034C286.469 142.541 292.877 146.464 294.432 152.797C295.988 159.13 292.103 165.474 285.755 166.967L236.613 178.524C230.265 180.017 223.857 176.093 222.301 169.76C220.746 163.427 224.63 157.083 230.978 155.59L280.121 144.034Z" fill="#F8DAC3" stroke="#F8DAC3" stroke-width="0.67473"/>
</mask>
<g mask="url(#mask0_4307_241169)">
<path d="M296.749 151.983C294.997 144.739 287.95 140.228 281.01 141.907L251.342 149.077L258.452 174.633L287.357 168.139C294.297 166.46 298.502 159.227 296.749 151.983Z" fill="#ED9D63"/>
</g>
<path d="M223.587 159.731L238.855 102.697L264.214 109.681L246.997 166.178C245.065 172.516 238.396 176.187 232.009 174.428C225.622 172.669 221.875 166.129 223.587 159.731Z" fill="#FFB598" stroke="#FFB598" stroke-width="0.67473"/>
<circle cx="234.436" cy="165.875" r="12.2785" transform="rotate(-171.511 234.436 165.875)" fill="#FFB598" stroke="#FFB598" stroke-width="0.67473"/>
<path d="M236.085 108.565C236.691 116.282 240.598 120.351 249.106 121.143C257.614 121.936 261.828 118.328 264.853 108.592C267.079 101.427 269.373 91.8819 267.866 87.2695C267.261 85.4164 265.677 83.5823 264.034 83.956C262.39 84.3297 262.362 86.1456 262.547 88.2046C262.756 90.532 262.452 93.6355 260.625 94.0144C259.548 94.2378 258.017 92.7576 257.816 91.2295C257.486 88.7223 257.592 86.6356 257.926 84.0006C258.154 82.1975 258.395 80.5876 258.578 79.4288C258.67 78.8499 258.747 78.385 258.801 78.0664L258.879 77.6111C259.17 75.4801 258.008 74.0302 256.454 73.7527C253.471 73.2201 252.913 76.0353 252.848 76.4383C252.924 75.923 252.986 75.5164 253.03 75.2381C253.053 75.0948 253.082 74.9132 253.082 74.9132C253.341 73.356 252.396 72.2301 250.912 71.9607C249.428 71.6913 248.161 72.7489 247.75 73.7203C247.339 74.6917 247.091 76.1815 247.091 76.1815C244.14 75.2127 242.356 76.8864 241.879 78.2385C241.402 79.5906 241.068 81.3753 240.803 83.8058C240.763 84.1705 240.74 84.4214 240.709 84.7405C240.359 84.4213 239.917 84.1961 239.415 84.1126C238.031 83.8822 237.17 84.8962 236.768 86.3011C236.367 87.706 235.611 92.7477 235.589 95.8943C235.566 99.0409 235.479 100.848 236.085 108.565Z" fill="#FFB598"/>
<path d="M240.709 84.7405C240.359 84.4213 239.917 84.1961 239.415 84.1126C238.031 83.8822 237.17 84.8962 236.768 86.3011C236.367 87.706 235.611 92.7477 235.589 95.8943C235.566 99.0409 235.479 100.848 236.085 108.565C236.691 116.282 240.598 120.351 249.106 121.143C257.614 121.936 261.828 118.328 264.853 108.592C267.079 101.427 269.373 91.8819 267.866 87.2695C267.261 85.4164 265.677 83.5823 264.034 83.956C262.39 84.3297 262.362 86.1456 262.547 88.2046C262.756 90.532 262.452 93.6355 260.625 94.0144C259.548 94.2378 258.017 92.7576 257.816 91.2295C257.486 88.7223 257.592 86.6356 257.926 84.0006C258.154 82.1975 258.395 80.5876 258.578 79.4288C258.67 78.8499 258.747 78.385 258.801 78.0664L258.879 77.6111C259.17 75.4801 258.008 74.0302 256.454 73.7527C253.243 73.1793 252.841 76.4858 252.841 76.4858M240.709 84.7405C240.74 84.4214 240.763 84.1705 240.803 83.8058C241.068 81.3753 241.402 79.5906 241.879 78.2385C242.356 76.8864 244.14 75.2127 247.091 76.1815M240.709 84.7405C240.435 87.3066 240.044 91.9495 240.155 93.1748M247.091 76.1815C247.091 76.1815 246.402 80.148 246.325 80.6664M247.091 76.1815C247.091 76.1815 246.636 78.9244 246.325 80.6664M247.091 76.1815C247.091 76.1815 247.339 74.6917 247.75 73.7203C248.161 72.7489 249.428 71.6913 250.912 71.9607C252.396 72.2301 253.341 73.356 253.082 74.9132C253.082 74.9132 253.053 75.0948 253.03 75.2381C252.985 75.5249 252.92 75.948 252.841 76.4858M246.325 80.6664C245.831 84.2112 245.615 86.6167 245.438 90.1913M252.841 76.4858C252.684 77.5621 252.473 79.0953 252.258 80.9137C252.258 80.9137 251.649 86.5628 251.473 89.7275M252.841 76.4858C252.841 76.4858 252.783 76.9183 252.755 77.0867C252.698 77.4234 252.663 77.8434 252.568 78.4447C252.378 79.6464 251.998 83.2485 251.998 83.2485" stroke="#FFB598" stroke-width="0.67473" stroke-linecap="round" stroke-linejoin="round"/>
<path d="M240.331 84.766C239.912 87.0913 239.276 91.9569 240.077 92.8169M246.941 76.9569C246.029 80.7252 244.462 88.9299 245.493 91.602M251.345 92.5456C251.25 89.3545 251.477 81.5255 253.141 75.7379M242.173 99.2853C244.715 100.29 249.763 103.577 249.621 108.684" stroke="#ED9D63" stroke-width="0.67473" stroke-linecap="round" stroke-linejoin="round"/>
<path d="M236.656 111.453C237.095 113.565 239.594 118.649 242.782 119.855" stroke="#ED9D63" stroke-width="0.67473" stroke-linecap="round"/>
<path d="M282.172 140.783L282.164 140.785L282.157 140.787L256.041 148.362L255.761 148.443L255.8 148.731L259.451 175.633L259.504 176.019L259.878 175.912L288.684 167.669C296.105 165.87 300.664 158.397 298.868 150.974C297.072 143.549 289.597 138.986 282.172 140.783Z" fill="#04009A" stroke="#04009A" stroke-width="0.67473"/>
<path d="M289.133 231.814L289.174 232.104H289.467H354.664H354.957L354.998 231.814L367.05 146.362C367.382 144.013 365.785 141.827 363.447 141.427L322.745 134.467C322.259 134.384 321.762 134.383 321.276 134.465L280.68 141.318C278.338 141.713 276.736 143.902 277.068 146.255L289.133 231.814Z" fill="#04009A" stroke="#04009A" stroke-width="0.67473"/>
<path d="M301.582 142.469L308.477 159.317L322.04 151.465L334.889 159.317L341.785 138.973" stroke="#FCEFE6" stroke-width="0.67473" stroke-linecap="round" stroke-linejoin="round"/>
<path d="M278.824 163.207L288.302 231.693" stroke="#333333" stroke-width="0.67473" stroke-linecap="round" stroke-linejoin="round"/>
<path d="M365.77 153.894L355.141 231.695" stroke="#333333" stroke-width="0.67473" stroke-linecap="round" stroke-linejoin="round"/>
<path d="M312.798 136.483L286.409 138.362L286.113 142.521L312.143 139.746L312.798 136.483Z" fill="#333333"/>
<path d="M335.973 135.083L360.014 138.059L360.105 141.891L336.425 138.122L335.973 135.083Z" fill="#333333"/>
<path fill-rule="evenodd" clip-rule="evenodd" d="M355.75 236.209C326.363 236.209 288.954 234.786 288.954 234.786L287.649 225.977C287.649 225.977 333.514 226.953 355.75 226.953C355.75 230.767 355.75 236.209 355.75 236.209Z" fill="#333333"/>
<path d="M314.746 226.055L314.746 226.055C315.025 226.047 315.335 226.037 315.674 226.025C318.936 225.917 324.809 225.722 330.126 226.393C330.293 226.414 330.485 226.529 330.654 226.78C330.823 227.03 330.922 227.354 330.922 227.649V234.246C330.922 234.836 330.464 235.271 329.948 235.264L329.948 235.264C326.585 235.223 318.921 235.132 314.769 235.11C314.258 235.107 313.811 234.674 313.811 234.09V227.074C313.811 226.501 314.245 226.07 314.746 226.055Z" stroke="#FCEFE6" stroke-width="1.34946"/>
<path d="M330.573 227.568L314.527 234.779L314.124 233.893L330.102 226.785L330.573 227.568Z" fill="#FCEFE6" stroke="#FCEFE6" stroke-width="0.67473"/>
<path d="M330.271 234.548L314.135 227.542L314.522 226.648L330.537 233.674L330.271 234.548Z" fill="#FCEFE6" stroke="#FCEFE6" stroke-width="0.67473"/>
<path d="M312.692 162.866L318.004 169.053L311.535 210.281L318.352 221.118L326.393 209.76L319.576 169.226L325.597 163.325L318.984 159.215L312.692 162.866Z" fill="#333333"/>
<path d="M311.572 125.848C311.572 120.058 316.265 115.365 322.056 115.365C327.846 115.365 332.539 120.058 332.539 125.848V136.082C332.539 141.872 327.846 146.566 322.056 146.566C316.265 146.566 311.572 141.872 311.572 136.082V125.848Z" fill="#FFB598" stroke="#FFB598" stroke-width="0.67473"/>
<mask id="mask1_4307_241169" style="mask-type:alpha" maskUnits="userSpaceOnUse" x="311" y="115" width="22" height="32">
<path d="M311.576 125.848C311.576 120.058 316.269 115.365 322.059 115.365C327.849 115.365 332.543 120.058 332.543 125.848V136.082C332.543 141.872 327.849 146.566 322.059 146.566C316.269 146.566 311.576 141.872 311.576 136.082V125.848Z" fill="#F8DAC3" stroke="#F8DAC3" stroke-width="0.67473"/>
</mask>
<g mask="url(#mask1_4307_241169)">
<path d="M297.055 82.759C297.055 70.6318 306.886 60.8008 319.013 60.8008C331.14 60.8008 340.971 70.6318 340.971 82.759V107.415C340.971 119.543 331.14 129.374 319.013 129.374C306.886 129.374 297.055 119.543 297.055 107.415V82.759Z" fill="#ED9D63"/>
</g>
<path d="M289.237 82.9664C289.27 83.1728 289.31 83.3758 289.358 83.5787C289.611 84.6189 290.018 85.6192 290.566 86.5492L290.595 86.5982C290.803 86.948 291.025 87.2979 291.266 87.6478C291.905 88.546 292.602 89.4049 293.353 90.2194L293.802 90.6988C294.105 91.0242 294.412 91.3426 294.718 91.6574C293.094 91.3076 291.522 92.7596 291.233 94.327C290.945 95.8945 291.598 97.476 292.405 98.8755C293.817 101.353 295.853 103.001 297.644 105.152C298.987 106.755 299.732 108.651 301.195 110.184L301.304 110.299C305.168 114.19 311.269 115.099 316.348 116.761C318.173 117.363 326.445 127.252 336.625 123.502C338.893 122.666 339.895 121.828 342.336 119.585C351.093 111.611 354.159 97.1646 348.949 86.5982C343.348 75.227 331.404 66.3189 322.766 64.993C314.129 63.6671 310.24 63.3066 306.65 64.993C303.059 66.6794 301.271 71.9102 304.249 74.4643C302.376 73.1057 300.047 72.4567 297.706 72.6414C295.545 72.7713 293.506 73.6504 291.97 75.1151C290.754 76.2868 289.88 77.7443 289.434 79.3416C289.105 80.5233 289.037 81.7583 289.237 82.9664Z" fill="#934103"/>
<path d="M336.677 103.334C336.677 100.167 339.245 97.5991 342.412 97.5991C345.58 97.5991 348.148 100.167 348.148 103.334C348.148 106.502 345.58 109.069 342.412 109.069C339.245 109.069 336.677 106.502 336.677 103.334Z" fill="#FFB598" stroke="#FFB598" stroke-width="0.67473"/>
<path d="M295.978 103.334C295.978 100.167 298.546 97.5991 301.713 97.5991C304.881 97.5991 307.448 100.167 307.448 103.334C307.448 106.502 304.881 109.069 301.713 109.069C298.546 109.069 295.978 106.502 295.978 103.334Z" fill="#FFB598" stroke="#FFB598" stroke-width="0.67473"/>
<path d="M298.898 101.371C299.456 101.888 300.547 103.168 300.448 104.16" stroke="#662D03" stroke-width="0.67473" stroke-linecap="round" stroke-linejoin="round"/>
<path d="M345.328 101.66C344.359 101.66 343.679 103.457 343.779 104.449" stroke="#662D03" stroke-width="0.67473" stroke-linecap="round" stroke-linejoin="round"/>
<path d="M302.693 90.9236C302.693 77.5604 315.909 68.2143 328.508 72.6672C336.246 75.4018 341.419 82.717 341.419 90.9236V107.906C341.419 118.6 332.75 127.269 322.056 127.269C311.362 127.269 302.693 118.6 302.693 107.906V90.9236Z" fill="#FFB598" stroke="#FFB598" stroke-width="0.67473"/>
<mask id="mask2_4307_241169" style="mask-type:alpha" maskUnits="userSpaceOnUse" x="278" y="52" width="74" height="54">
<path d="M302.299 97.3272C302.299 97.3272 302.142 91.2536 302.588 89.5237C303.42 86.2987 306.155 85.0609 306.847 84.0938C312.473 90.7347 325.482 97.2634 336.072 94.7898C336.072 98.7013 338.023 105.981 339.794 105.982C341.565 105.982 342.227 96.7367 344.533 97.2634C349.081 90.3076 357.942 78.9148 344.533 70.4744L345.635 68.9032L347.626 67.7134C345.99 65.8917 339.88 65.044 338.233 67.4778C338.233 67.4778 335.357 59.5038 322.677 54.0256C308.002 47.6856 286.371 65.6263 286.371 65.6263L278.325 80.7916L295.607 103.198C295.607 103.198 295.344 100.044 298.762 98.0068C300.35 97.0602 302.299 97.3272 302.299 97.3272Z" fill="#D9D9D9"/>
</mask>
<g mask="url(#mask2_4307_241169)">
<path d="M289.128 82.0692C289.16 82.2802 289.2 82.4875 289.247 82.6949C289.498 83.7578 289.901 84.7798 290.444 85.7301L290.473 85.7802C290.679 86.1377 290.9 86.4952 291.138 86.8527C291.771 87.7704 292.462 88.6481 293.206 89.4803L293.651 89.9701C293.951 90.3026 294.255 90.6279 294.559 90.9497C292.95 90.5922 291.391 92.0758 291.106 93.6774C290.82 95.2791 291.467 96.895 292.266 98.325C293.665 100.856 295.683 102.54 297.458 104.739C298.789 106.376 299.527 108.314 300.976 109.88L301.085 109.998C304.914 113.973 310.959 114.902 315.992 116.601C317.8 117.216 337.404 122.721 337.404 123.922C337.404 123.661 339.324 121.777 341.743 119.486C350.421 111.338 353.459 96.5768 348.296 85.7802C342.746 74.1612 331.844 66.1896 322.352 63.7042C312.859 61.2189 309.94 61.9811 306.382 63.7042C302.824 65.4274 301.052 70.7721 304.003 73.3819C302.147 71.9937 299.839 71.3305 297.52 71.5193C295.378 71.652 293.358 72.5503 291.836 74.0468C290.631 75.2442 289.764 76.7333 289.323 78.3655C288.996 79.5729 288.93 80.8348 289.128 82.0692Z" fill="#934103"/>
<path d="M289.037 81.6595C289.046 82.0213 289.04 82.3674 289.092 82.5845C289.248 83.6958 289.769 85.2844 290 85.6587C290.232 86.033 290.837 87.1043 291.105 87.4786C291.81 88.4441 292.84 89.6632 292.84 89.6632C292.84 89.6632 293.692 90.6326 294.033 90.9695C292.997 90.7668 291.208 92.3009 290.887 93.9778C290.566 95.6546 291.293 97.3465 292.191 98.8437C293.763 101.494 296.03 103.257 298.024 105.559C299.519 107.273 300.348 109.302 301.977 110.941C303.868 108.869 305.072 106.339 305.446 103.654C306.112 98.6903 309.872 95.1194 310.055 90.0962C309.077 85.7094 307.107 84.5154 305.052 81.9589C303.399 80.0799 301.487 78.4076 299.365 76.9844C297.707 75.9775 295.575 75.8203 293.596 76.0785C291.873 76.2957 290.116 76.9721 289.53 77.7574C289.161 79.0199 288.998 80.124 289.037 81.6595Z" fill="#662D03"/>
</g>
<path d="M319.84 103.379C317.924 105.407 317.63 112.407 317.63 112.407H321.199" stroke="#662D03" stroke-width="0.67473" stroke-linecap="round" stroke-linejoin="round"/>
<path d="M335.146 96.4932C331.646 96.7143 328.21 97.5466 324.997 98.9521" stroke="#662D03" stroke-width="0.67473" stroke-linecap="round"/>
<path d="M316.304 98.966C313.094 97.5536 309.66 96.7137 306.16 96.4849" stroke="#662D03" stroke-width="0.67473" stroke-linecap="round"/>
<path d="M329.391 100.551C327.127 100.551 327.127 105.249 329.391 105.274H329.495C331.762 105.274 331.762 100.576 329.495 100.551H329.395H329.391Z" fill="#662D03"/>
<path d="M311.175 100.551C308.911 100.578 308.911 105.247 311.175 105.274H311.279C313.542 105.274 313.542 100.578 311.279 100.551H311.175Z" fill="#662D03"/>
<path d="M322.576 115.027C318.894 115.027 318.894 121.666 322.576 121.702H322.745C326.434 121.702 326.434 115.063 322.745 115.027H322.582H322.576Z" fill="white"/>
<path d="M302.526 102.186C302.526 101.225 302.281 94.1605 302.281 92.2386C302.281 87.2521 306.603 84.0742 306.603 84.0742" stroke="#662D03" stroke-width="0.67473" stroke-linecap="round" stroke-linejoin="round"/>
<path d="M318.387 119.227V129.989H324.438V119.321L318.387 119.227Z" fill="#F83131"/>
<path d="M369.489 161.028C372.024 155.02 369.229 148.046 363.246 145.451C357.263 142.857 350.358 145.624 347.823 151.633L328.199 198.146C325.664 204.154 328.459 211.128 334.442 213.723C340.425 216.317 347.33 213.55 349.865 207.541L369.489 161.028Z" fill="#FFB598" stroke="#FFB598" stroke-width="0.67473"/>
<mask id="mask3_4307_241169" style="mask-type:alpha" maskUnits="userSpaceOnUse" x="326" y="144" width="45" height="72">
<path d="M369.489 161.028C372.024 155.02 369.229 148.046 363.246 145.451C357.263 142.857 350.358 145.624 347.823 151.633L328.199 198.146C325.664 204.154 328.459 211.128 334.442 213.723C340.425 216.317 347.33 213.55 349.865 207.541L369.489 161.028Z" fill="#F8DAC3" stroke="#F8DAC3" stroke-width="0.67473"/>
</mask>
<g mask="url(#mask3_4307_241169)">
<path d="M364.033 143.848C370.881 146.789 374.369 153.978 371.824 159.905L362.462 185.228L337.252 171L347.025 149.254C349.57 143.328 357.185 140.907 364.033 143.848Z" fill="#ED9D63"/>
</g>
<path d="M347.243 198.822L332.728 162.035L313.606 168.895L325.486 206.316C327.426 212.426 334.001 215.825 340.109 213.873C346.411 211.86 349.672 204.98 347.243 198.822Z" fill="#FFB598" stroke="#FFB598" stroke-width="0.67473"/>
<circle r="12.2785" transform="matrix(0.982265 -0.187498 -0.187498 -0.982265 337.601 205.34)" fill="#FFB598" stroke="#FFB598" stroke-width="0.67473"/>
<path d="M325.427 121.649C323.824 122.02 323.376 123.451 323.376 125.329C323.376 127.916 324.999 131.752 324.999 131.752L324.302 134.268L317.853 121.151C317.853 121.151 317.349 119.472 315.88 119.496C315.211 119.477 314.547 119.623 313.947 119.92C313.347 120.217 312.83 120.656 312.439 121.199C312.048 121.743 311.797 122.374 311.707 123.037C311.617 123.7 311.69 124.375 311.921 125.003C311.056 125.071 310.24 125.432 309.608 126.027C308.976 126.622 308.566 127.414 308.445 128.273C308.445 128.273 305.792 127.52 303.692 130.832L303.034 133.024C302.751 132.624 301.212 133.456 300.74 133.325C300.268 133.195 299.111 137.242 299.101 138.778C299.091 140.315 304.706 157.101 307.566 159.556C309.267 161.006 310.743 162.702 311.945 164.586L315.531 176.092L334.512 165.823C334.512 165.823 331.768 155.152 331.728 153.463C331.688 151.774 331.338 147.303 331.728 145.395C332.41 141.783 333.218 138.548 332.419 134.268C331.385 128.73 327.578 121.151 325.427 121.649Z" fill="#FFB598"/>
<path d="M303.258 133.253C303.601 134.052 305.725 137.937 305.725 137.937M308.635 128.8C308.943 129.56 310.809 133.8 311.698 135.624M318.473 136.116C317.319 134.174 314.406 128.8 312.891 125.432" stroke="#ED9D63" stroke-width="0.67473" stroke-linecap="round" stroke-linejoin="round"/>
<path d="M299.105 138.589C299.105 132.645 301.883 132.31 303.027 133.174L303.445 131.585C303.981 128.64 307.126 128.461 308.632 128.74C308.632 125.728 311.198 125.087 312.481 125.143C312.034 124.25 311.644 122.064 313.652 120.457C315.66 118.851 317.11 120.234 317.584 121.127L324.444 135.266L325.699 131.585C325.253 131.334 324.243 129.861 323.775 125.979C323.306 122.097 325.141 121.74 326.117 122.047C331.204 125.795 332.587 134.317 332.643 138.11C332.587 140.006 332.292 144.736 331.556 148.484" stroke="#ED9D63" stroke-width="0.67473" stroke-linecap="round" stroke-linejoin="round"/>
<path d="M364.03 183.786L363.88 184.19L363.523 183.947L339.568 167.615L339.336 167.457L339.449 167.2L347.614 148.624C347.614 148.624 347.614 148.623 347.614 148.623C350.629 141.605 358.763 138.359 365.782 141.373C372.798 144.387 376.045 152.516 373.036 159.533L364.03 183.786Z" fill="#04009A" stroke="#04009A" stroke-width="0.67473"/>
<path d="M296.169 320.402H278.316C276.826 320.402 275.617 321.611 275.617 323.101V442.908C275.617 444.398 276.826 445.607 278.316 445.607H296.169V320.402Z" fill="#8C837C"/>
<path d="M296.169 372.43H275.617V387.45L296.169 383.015V372.43Z" fill="#666666"/>
<path d="M296.161 445.621H300.313C301.803 445.621 303.012 444.413 303.012 442.922V323.116C303.012 321.625 301.803 320.417 300.313 320.417H296.161V445.621Z" fill="#666666"/>
<path d="M80.8804 320.402H63.027C61.5365 320.402 60.3281 321.611 60.3281 323.101V442.908C60.3281 444.398 61.5365 445.607 63.027 445.607H80.8804V320.402Z" fill="#8C837C"/>
<path d="M80.8687 372.43H60.3281V387.45L80.8687 383.015V372.43Z" fill="#666666"/>
<path d="M80.868 445.621H85.0198C86.5104 445.621 87.7188 444.413 87.7188 442.922L87.7187 323.116C87.7187 321.625 86.5104 320.417 85.0198 320.417H80.868L80.868 445.621Z" fill="#666666"/>
<path d="M306.957 338.758H47.3552C45.8646 338.758 44.6562 339.966 44.6562 341.457V374.596C44.6562 376.086 45.8646 377.295 47.3552 377.295H306.957V338.758Z" fill="#8C837C"/>
<path d="M306.957 377.289H308.11C309.6 377.289 310.809 376.081 310.809 374.59V341.451C310.809 339.96 309.6 338.752 308.11 338.752H306.957V377.289Z" fill="#666666"/>
<path d="M207.312 299.465H156.031L119.77 335.726V387.007L156.031 423.269H207.312L243.573 387.007V335.726L207.312 299.465Z" fill="#FBF6F1"/>
<path d="M204.966 305.125H158.376L125.43 338.072V384.661L158.376 417.608H204.966L237.913 384.661V338.072L204.966 305.125Z" fill="#F83131"/>
<path d="M136.656 366.743L143.215 366.16C143.27 367.372 143.563 368.562 144.079 369.661C144.349 370.24 144.78 370.729 145.32 371.07C145.86 371.412 146.486 371.591 147.125 371.587C147.564 371.622 148.005 371.551 148.411 371.381C148.817 371.21 149.177 370.945 149.459 370.606C150.002 369.952 150.288 369.122 150.264 368.272C150.27 367.467 149.998 366.683 149.494 366.055C148.511 365.141 147.303 364.505 145.993 364.211C143.51 363.582 141.263 362.243 139.527 360.359C138.17 358.609 137.479 356.433 137.578 354.221C137.562 352.611 137.901 351.017 138.57 349.552C139.206 348.139 140.251 346.948 141.57 346.133C143.246 345.212 145.146 344.78 147.055 344.884C148.239 344.803 149.427 344.961 150.548 345.35C151.669 345.739 152.7 346.351 153.579 347.148C155.073 348.654 155.913 351.058 156.252 354.349L149.751 354.898C149.69 353.774 149.314 352.69 148.665 351.77C148.376 351.442 148.015 351.184 147.61 351.016C147.206 350.848 146.768 350.775 146.331 350.801C145.995 350.779 145.658 350.832 145.345 350.957C145.031 351.082 144.75 351.276 144.522 351.525C144.113 352.019 143.898 352.645 143.915 353.287C143.909 353.788 144.088 354.274 144.417 354.652C145.072 355.25 145.88 355.654 146.751 355.82C149.042 356.414 151.227 357.359 153.229 358.621C154.483 359.503 155.468 360.714 156.076 362.122C156.683 363.602 156.985 365.19 156.963 366.79C156.991 368.728 156.593 370.648 155.796 372.415C155.1 374.023 153.943 375.388 152.47 376.337C150.842 377.279 148.981 377.74 147.102 377.667C143.312 377.667 140.687 376.625 139.224 374.54C137.657 372.232 136.767 369.531 136.656 366.743Z" fill="#FBF6F1"/>
<path d="M158.805 345.48H179.812V353.335H172.81V377.248H165.912V353.335H158.91L158.805 345.48Z" fill="#FBF6F1"/>
<path d="M180.948 361.386C180.948 356.204 181.964 352.166 183.994 349.272C184.977 347.935 186.259 346.847 187.737 346.095C189.215 345.344 190.849 344.948 192.508 344.941C194.167 344.935 195.804 345.316 197.289 346.056C198.773 346.796 200.064 347.873 201.057 349.202C203.103 352.042 204.126 356.014 204.126 361.118C204.224 364.217 203.777 367.31 202.808 370.256C202.08 372.422 200.762 374.342 199.003 375.799C197.23 377.159 195.039 377.86 192.806 377.783C190.597 377.872 188.415 377.272 186.562 376.068C184.727 374.69 183.333 372.808 182.547 370.653C181.416 367.697 180.873 364.549 180.948 361.386ZM187.846 361.386C187.846 364.599 188.266 366.902 189.106 368.295C189.433 368.921 189.925 369.446 190.529 369.812C191.132 370.179 191.825 370.372 192.532 370.372C193.238 370.372 193.931 370.179 194.534 369.812C195.138 369.446 195.63 368.921 195.957 368.295C196.774 366.918 197.124 364.455 197.124 360.907C197.279 358.649 196.845 356.389 195.864 354.349C195.525 353.716 195.02 353.189 194.403 352.825C193.785 352.46 193.079 352.273 192.362 352.283C191.665 352.291 190.983 352.492 190.392 352.862C189.801 353.233 189.324 353.759 189.013 354.384C188.235 355.846 187.846 358.196 187.846 361.433V361.386Z" fill="#FBF6F1"/>
<path d="M207.754 345.483H219.214C220.287 345.412 221.361 345.607 222.341 346.051C223.32 346.494 224.174 347.174 224.828 348.027C226.195 350.174 226.844 352.7 226.684 355.24C226.841 357.899 226.128 360.538 224.653 362.756C223.919 363.678 222.97 364.406 221.89 364.878C220.81 365.35 219.631 365.551 218.456 365.464H214.628V377.251H207.707L207.754 345.483ZM214.628 359.033H216.32C216.831 359.089 217.349 359.029 217.834 358.857C218.319 358.685 218.759 358.406 219.121 358.041C219.68 357.323 219.965 356.429 219.926 355.52C219.983 354.62 219.763 353.724 219.296 352.952C218.981 352.572 218.576 352.277 218.117 352.096C217.657 351.914 217.16 351.852 216.67 351.914H214.628V359.033Z" fill="#FBF6F1"/>
</svg>
