<svg width="447" height="467" viewBox="0 0 447 467" fill="none" xmlns="http://www.w3.org/2000/svg">
<g clip-path="url(#clip0_4307_239963)">
<path d="M292.545 71.3762C296.02 71.3618 299.25 69.5597 301.401 66.8303C307.273 59.3812 317.027 53.663 332.868 52.2437C351.513 50.5731 360.978 56.3641 366.072 65.4499C368.261 69.3559 372.457 72.0024 376.92 71.6431C377.401 71.6044 377.889 71.5695 378.383 71.5385C416.224 69.1673 420.073 93.2612 416.224 105.68C413.447 114.641 395.782 116.27 380.35 116.483C376.36 116.538 373.154 119.538 370.38 122.407C364.759 128.221 353.838 127.504 343.274 127.504C330.659 127.504 309.891 124.199 299.756 115.167C297.602 113.248 294.942 111.81 292.058 111.777C277.42 111.609 262.798 109.392 258.373 105.433C249.39 97.3949 250.415 73.8741 288.318 71.5187C289.771 71.4284 291.179 71.3818 292.545 71.3762Z" fill="#F2F2F2"/>
<path d="M216.726 93.5091C220.196 93.6232 223.472 91.8931 225.534 89.1C233.627 78.1349 247.386 69.6367 270.197 67.5781C297.575 65.1073 310.758 74.2573 317.577 88.1947C319.563 92.2549 323.898 94.8238 328.383 94.2632C330.423 94.0082 332.563 93.8072 334.81 93.6645C387.42 90.3221 392.771 124.284 387.42 141.789C383.355 155.087 356.346 156.931 334.174 157.049C330.068 157.071 326.734 160.076 324.529 163.54C317.56 174.487 300.837 173.279 284.707 173.279C266.433 173.279 235.886 168.269 222.445 154.434C220.379 152.308 217.651 150.813 214.687 150.806C193.727 150.754 172.306 147.588 165.966 141.789C153.497 130.383 154.921 97.0068 207.532 93.6645C210.751 93.4599 213.814 93.4134 216.726 93.5091ZM180.661 33.1279C184.11 32.9376 187.298 31.1202 189.753 28.69C193.389 25.091 198.901 22.4271 207.138 21.6888C217.571 20.7536 223.244 23.6886 226.468 28.4912C228.374 31.3312 231.561 33.3754 234.975 33.1603V33.1603C257.732 31.7266 260.047 46.295 257.732 53.8038C256.211 58.7394 247.26 59.9967 238.663 60.2789C234.618 60.4116 231.282 63.7972 227.668 65.6178C224.03 67.45 218.654 67.1585 213.422 67.1585C206.369 67.1585 195.095 65.447 188.604 60.8625C186.266 59.2109 183.615 57.7727 180.754 57.6841C172.578 57.4307 164.773 56.1019 162.293 53.8499C156.89 48.9437 157.507 34.5869 180.302 33.1491C180.422 33.1416 180.542 33.1345 180.661 33.1279Z" fill="#CDCDCD"/>
</g>
<path d="M29.7174 118.071V94.4207C29.7174 77.6812 43.6303 64.062 60.7277 64.062C77.8251 64.062 91.738 77.6812 91.738 94.4207V118.071H104.1V94.4207C104.1 71.0092 84.6439 51.957 60.7277 51.957C36.8115 51.957 17.3555 71.0092 17.3555 94.4207V118.071H29.7174Z" fill="#FFB131"/>
<path d="M102.672 118.234H17.5566C12.7338 118.234 8.82422 122.144 8.82422 126.967V187.831C8.82422 192.654 12.7338 196.563 17.5566 196.563H102.672C107.494 196.563 111.404 192.654 111.404 187.831V126.967C111.404 122.144 107.494 118.234 102.672 118.234Z" fill="#F2F2F2"/>
<path fill-rule="evenodd" clip-rule="evenodd" d="M54.096 155.112C54.4853 155.355 54.7254 155.788 54.6808 156.244V156.244C54.7254 155.788 54.4853 155.355 54.096 155.112V155.112ZM64.6203 156.243C64.5762 155.787 64.8162 155.355 65.2052 155.112V155.112C64.8164 155.355 64.5758 155.787 64.6203 156.243V156.243Z" fill="#CDCDCD"/>
<path d="M69.9614 146.605C69.8814 143.924 68.76 141.379 66.8351 139.511C64.9102 137.643 62.3331 136.598 59.6506 136.598C56.9681 136.598 54.3911 137.643 52.4661 139.511C50.5412 141.379 49.4198 143.924 49.3398 146.605C49.3509 148.438 49.8607 150.233 50.8146 151.798C51.6366 153.147 52.7616 154.281 54.096 155.112V155.112C54.4853 155.355 54.7254 155.788 54.6808 156.244V156.244L53.1404 172.04C53.0759 172.701 53.596 173.275 54.2611 173.275H65.0401C65.7052 173.275 66.2253 172.701 66.1608 172.04L64.6204 156.244C64.6204 156.244 64.6203 156.244 64.6203 156.243V156.243C64.5758 155.787 64.8164 155.355 65.2052 155.112V155.112C66.5397 154.281 67.6646 153.147 68.4866 151.798C69.4405 150.233 69.9503 148.438 69.9614 146.605Z" fill="#CDCDCD"/>
<path d="M187.155 277.194H187.484V276.865V227.364C187.484 218.473 180.276 211.265 171.385 211.265H139.481C130.59 211.265 123.382 218.473 123.382 227.364V276.865V277.194H123.711H187.155Z" fill="#666666" stroke="#666666" stroke-width="0.657087"/>
<path d="M202.48 329.866L187.252 262.415C185.534 254.804 177.985 250.088 170.392 251.882C162.799 253.676 158.036 261.3 159.754 268.911L174.982 336.362C176.7 343.973 184.248 348.688 191.842 346.895C199.435 345.101 204.198 337.477 202.48 329.866Z" fill="#666666" stroke="#666666" stroke-width="0.657087"/>
<path d="M210.982 447.612C218.629 447.53 224.762 441.264 224.679 433.616C224.597 425.969 218.331 419.836 210.684 419.919C203.037 420.001 196.904 426.267 196.986 433.914C197.068 441.561 203.334 447.694 210.982 447.612Z" fill="#FFB598" stroke="#FFB598" stroke-width="0.657087"/>
<path d="M194.149 436.577C194.134 435.126 195.298 433.937 196.749 433.921L226.949 433.596C227.592 433.589 228.216 433.818 228.701 434.241L245.587 448.919C247.412 450.505 246.308 453.505 243.891 453.531L196.966 454.036C195.514 454.052 194.325 452.888 194.309 451.436L194.149 436.577Z" fill="#662D03"/>
<path d="M227.696 429.297L228.095 429.276L227.997 428.888L203.835 333.062C201.912 325.434 194.288 320.704 186.599 322.369C178.786 324.06 173.789 331.724 175.392 339.556L194.064 430.765L194.12 431.042L194.403 431.027L227.696 429.297Z" fill="#666666" stroke="#666666" stroke-width="0.657087"/>
<path d="M191.05 348.51C198.413 347.448 203.522 340.619 202.46 333.255C201.399 325.892 194.569 320.783 187.206 321.845C179.842 322.907 174.734 329.736 175.795 337.1C176.857 344.463 183.687 349.571 191.05 348.51Z" fill="#666666" stroke="#666666" stroke-width="0.657087"/>
<path d="M108.618 329.944L123.835 262.49C125.552 254.879 133.1 250.162 140.693 251.955C148.287 253.747 153.051 261.37 151.334 268.981L136.117 336.435C134.4 344.046 126.852 348.763 119.258 346.97C111.665 345.178 106.901 337.555 108.618 329.944Z" fill="#666666" stroke="#666666" stroke-width="0.657087"/>
<path d="M100.21 447.704C92.5626 447.665 86.3942 441.434 86.4328 433.787C86.4714 426.139 92.7023 419.971 100.35 420.009C107.998 420.048 114.166 426.279 114.127 433.927C114.089 441.574 107.858 447.743 100.21 447.704Z" fill="#FFB598" stroke="#FFB598" stroke-width="0.657087"/>
<path d="M116.979 436.589C116.986 435.138 115.815 433.955 114.364 433.948L84.1632 433.795C83.5198 433.792 82.8975 434.025 82.4143 434.45L65.6122 449.225C63.797 450.821 64.9174 453.815 67.3346 453.827L114.262 454.064C115.714 454.071 116.897 452.9 116.904 451.449L116.979 436.589Z" fill="#662D03"/>
<path d="M84.3309 430.344L83.9136 430.344L84.0116 429.938L107.377 333.243C109.229 325.579 116.858 320.792 124.565 322.46C132.341 324.142 137.317 331.768 135.723 339.564L117.215 430.081L117.161 430.344L116.893 430.344L84.3309 430.344Z" fill="#666666" stroke="#666666" stroke-width="0.657087"/>
<path d="M120.048 348.586C112.685 347.526 107.575 340.697 108.636 333.334C109.696 325.97 116.525 320.861 123.888 321.921C131.252 322.981 136.362 329.81 135.301 337.174C134.241 344.537 127.412 349.647 120.048 348.586Z" fill="#666666" stroke="#666666" stroke-width="0.657087"/>
<path d="M165.32 276.234C162.478 277.947 154.403 277.504 150.258 277.361L148.023 286.674" stroke="white" stroke-width="0.657087" stroke-linecap="round" stroke-linejoin="round"/>
<path d="M123.37 254.552L123.41 254.834H123.696H187.188H187.473L187.513 254.552L199.25 171.334C199.573 169.047 198.018 166.917 195.741 166.528L156.104 159.75C155.63 159.669 155.146 159.669 154.673 159.748L115.139 166.422C112.857 166.807 111.298 168.939 111.621 171.23L123.37 254.552Z" fill="#04009A" stroke="#04009A" stroke-width="0.657087"/>
<path fill-rule="evenodd" clip-rule="evenodd" d="M187.778 259.798C156.083 259.798 123.078 258.152 123.078 258.152L124.291 249.703C124.291 249.703 164.31 250.323 188.291 250.323C188.291 254.436 187.778 259.798 187.778 259.798Z" fill="#333333"/>
<path d="M148.407 249.545L148.407 249.545C147.867 249.561 147.4 250.026 147.4 250.644V258.211C147.4 258.84 147.881 259.307 148.431 259.31C148.432 259.31 148.432 259.31 148.432 259.31L148.427 260.038C152.902 260.062 161.166 260.161 164.794 260.205C165.781 260.218 166.581 259.396 166.581 258.379V251.264C166.581 250.336 165.979 249.301 165.087 249.188L148.407 249.545ZM148.407 249.545C148.708 249.536 149.043 249.525 149.408 249.513C152.926 249.396 159.261 249.185 164.995 249.91L148.407 249.545ZM148.385 248.818L148.385 248.818L148.385 248.818Z" stroke="#FCEFE6" stroke-width="1.4554"/>
<path d="M165.474 251.175L148.169 258.952L147.733 257.997L164.966 250.33L165.474 251.175Z" fill="#FCEFE6" stroke="#FCEFE6" stroke-width="0.7277"/>
<path d="M165.151 258.703L147.748 251.147L148.165 250.183L165.437 257.76L165.151 258.703Z" fill="#FCEFE6" stroke="#FCEFE6" stroke-width="0.7277"/>
<path d="M135.492 167.542L142.207 183.95L155.415 176.303L167.929 183.95L175.041 166.191" stroke="#FCEFE6" stroke-width="0.657087" stroke-linecap="round" stroke-linejoin="round"/>
<path d="M167.593 159.762L197.759 168.149L196.857 172.216L167.367 163.071L167.593 159.762Z" fill="#333333"/>
<path d="M120.196 192.083L79.0886 219.049C73.7785 222.533 66.6073 221.08 63.0712 215.805C59.5352 210.53 60.9734 203.429 66.2835 199.946L107.391 172.979C112.701 169.496 119.872 170.948 123.408 176.224C126.944 181.499 125.506 188.599 120.196 192.083Z" fill="#FFB598" stroke="#FFB598" stroke-width="0.657087"/>
<mask id="mask0_4307_239963" style="mask-type:alpha" maskUnits="userSpaceOnUse" x="60" y="170" width="66" height="52">
<path d="M120.196 192.09L79.0886 219.057C73.7785 222.54 66.6073 221.088 63.0712 215.813C59.5352 210.537 60.9734 203.437 66.2835 199.954L107.391 172.987C112.701 169.504 119.872 170.956 123.408 176.231C126.944 181.507 125.506 188.607 120.196 192.09Z" fill="#F8DAC3" stroke="#F8DAC3" stroke-width="0.657087"/>
</mask>
<g mask="url(#mask0_4307_239963)">
<path d="M125.255 174.711C121.235 168.668 113.283 166.891 107.493 170.742L79.3345 187.891L98.3732 207.931L122.051 192.626C127.84 188.775 129.275 180.754 125.255 174.711Z" fill="#ED9D63"/>
</g>
<path d="M80.9496 204.587L124.644 244.732L121.58 279.325L64.6213 221.892C60.0026 217.234 59.987 209.681 64.5863 205.005C69.0511 200.466 76.2631 200.282 80.9496 204.587Z" fill="#FFB598" stroke="#FFB598" stroke-width="0.657087"/>
<circle cx="70.5356" cy="211.299" r="11.9574" transform="rotate(-52.3824 70.5356 211.299)" fill="#FFB598" stroke="#FFB598" stroke-width="0.657087"/>
<path fill-rule="evenodd" clip-rule="evenodd" d="M133.315 251.067C133.315 251.067 122.124 239.939 118.318 240.293C112.418 240.843 116.296 252.313 116.296 252.313C116.296 252.313 111.228 255.579 114.488 261.423C112.316 267.036 115.402 269.774 115.402 269.774C115.402 269.774 112.075 274.022 116.709 277.546C121.342 281.07 131.967 280.17 130.461 272.786C134.758 268.738 131.289 264.639 131.289 264.639C131.289 264.639 134.417 260.779 130.949 256.874C134.066 255.148 134.471 252.239 133.315 251.067Z" fill="#FFB598"/>
<path d="M119.409 250.009C119.504 249.85 119.697 249.785 119.865 249.848L119.927 249.877L131.142 256.546C131.321 256.653 131.38 256.885 131.273 257.064C131.179 257.224 130.985 257.288 130.817 257.225L130.755 257.196L119.54 250.527C119.361 250.421 119.302 250.189 119.409 250.009Z" fill="#ED9D63"/>
<path d="M118.294 239.915C118.503 239.903 118.681 240.062 118.693 240.271C118.705 240.479 118.545 240.658 118.337 240.67C116.074 240.797 115.221 242.823 115.464 246.271C115.546 247.427 115.75 248.668 116.039 249.928C116.147 250.397 116.261 250.843 116.376 251.259L116.531 251.8C116.585 251.978 116.626 252.111 116.653 252.192C116.701 252.336 116.658 252.494 116.544 252.594L116.404 252.725C116.327 252.8 116.231 252.898 116.121 253.017C115.795 253.365 115.47 253.764 115.166 254.205C113.582 256.502 113.219 258.901 114.798 261.208C114.873 261.317 114.885 261.457 114.831 261.577C113.482 264.564 113.669 266.845 114.774 268.514C114.964 268.802 115.168 269.045 115.37 269.244C115.488 269.36 115.577 269.433 115.62 269.464C115.704 269.525 115.759 269.616 115.774 269.717L115.778 269.778L115.685 275.024C115.681 275.233 115.509 275.399 115.3 275.396C115.112 275.392 114.959 275.252 114.933 275.072L114.929 275.011L115.018 269.952L114.935 269.879C114.729 269.691 114.489 269.427 114.247 269.083L114.143 268.932C112.928 267.095 112.697 264.624 114.03 261.519L114.057 261.458C112.446 258.962 112.821 256.37 114.427 253.948L114.543 253.775C114.869 253.302 115.218 252.875 115.568 252.501C115.65 252.413 115.728 252.332 115.801 252.259L115.862 252.199L115.736 251.775C115.588 251.262 115.44 250.697 115.302 250.097C115.005 248.802 114.794 247.524 114.71 246.324L114.685 245.906C114.519 242.333 115.572 240.068 118.294 239.915Z" fill="#ED9D63"/>
<path d="M120.074 261.358C120.127 261.178 120.302 261.066 120.483 261.089L120.543 261.101L131.392 264.274C131.592 264.333 131.707 264.543 131.649 264.743C131.596 264.924 131.42 265.035 131.24 265.012L131.179 265L120.331 261.827C120.13 261.768 120.015 261.558 120.074 261.358Z" fill="#ED9D63"/>
<path d="M120.063 270.405L130.53 272.412C130.735 272.451 130.87 272.649 130.831 272.854C130.795 273.039 130.631 273.166 130.449 273.161L130.388 273.154L119.92 271.148C119.715 271.109 119.581 270.911 119.62 270.705C119.655 270.521 119.82 270.394 120.001 270.399L120.063 270.405Z" fill="#ED9D63"/>
<path d="M123.11 191.76L123.112 191.758C129.306 187.638 130.987 179.277 126.867 173.082C122.747 166.889 114.386 165.207 108.192 169.327C108.192 169.327 108.191 169.327 108.191 169.327L82.6872 185.991L82.3918 186.184L82.6053 186.465L98.5701 207.465L98.7555 207.709L99.0117 207.541L123.11 191.76Z" fill="#04009A" stroke="#04009A" stroke-width="0.657087"/>
<path d="M113.492 182.922L121.212 240.236" stroke="#333333" stroke-width="0.7277"/>
<path d="M196.539 192.512L188.819 249.826" stroke="#333333" stroke-width="0.7277"/>
<path d="M165.642 151.362V161.328C165.642 166.967 161.071 171.538 155.433 171.538C149.794 171.538 145.223 166.967 145.223 161.328V151.362C145.223 145.724 149.794 141.153 155.433 141.153C161.071 141.153 165.642 145.724 165.642 151.362Z" fill="#FFB598" stroke="#FFB598" stroke-width="0.657087"/>
<mask id="mask1_4307_239963" style="mask-type:alpha" maskUnits="userSpaceOnUse" x="144" y="140" width="22" height="32">
<path d="M165.638 151.366V161.332C165.638 166.971 161.067 171.542 155.429 171.542C149.79 171.542 145.219 166.971 145.219 161.332V151.366C145.219 145.728 149.79 141.157 155.429 141.157C161.067 141.157 165.638 145.728 165.638 151.366Z" fill="#F8DAC3" stroke="#F8DAC3" stroke-width="0.657087"/>
</mask>
<g mask="url(#mask1_4307_239963)">
<path d="M131.078 109.404C131.078 97.5935 140.652 88.0195 152.462 88.0195V88.0195C164.272 88.0195 173.846 97.5935 173.846 109.404V133.415C173.846 145.225 164.272 154.799 152.462 154.799V154.799C140.652 154.799 131.078 145.225 131.078 133.415V109.404Z" fill="#ED9D63"/>
</g>
<path d="M123.471 109.604C123.503 109.805 123.542 110.002 123.588 110.2C123.835 111.213 124.231 112.187 124.764 113.093L124.793 113.14C124.995 113.481 125.212 113.822 125.447 114.163C126.069 115.037 126.748 115.874 127.479 116.667L127.916 117.134C128.211 117.451 128.51 117.761 128.808 118.067C127.227 117.727 125.695 119.141 125.415 120.667C125.134 122.194 125.77 123.734 126.555 125.097C127.93 127.509 129.913 129.114 131.658 131.209C132.966 132.77 133.691 134.617 135.116 136.109L135.222 136.222C138.985 140.01 144.927 140.896 149.873 142.515C151.65 143.101 159.705 152.731 169.62 149.079C171.828 148.265 172.803 147.449 175.181 145.265C183.709 137.499 186.695 123.43 181.621 113.14C176.166 102.067 164.535 93.3913 156.123 92.1001C147.711 90.8089 143.925 90.4578 140.428 92.1001C136.931 93.7424 135.19 98.8364 138.09 101.324C136.266 100.001 133.998 99.3686 131.718 99.5485C129.613 99.675 127.628 100.531 126.132 101.957C124.948 103.099 124.096 104.518 123.663 106.074C123.341 107.224 123.276 108.427 123.471 109.604Z" fill="#934103"/>
<path d="M175.25 135.022C172.165 135.022 169.664 132.522 169.664 129.437C169.664 126.353 172.165 123.852 175.25 123.852C178.334 123.852 180.835 126.353 180.835 129.437C180.835 132.522 178.334 135.022 175.25 135.022Z" fill="#FFB598" stroke="#FFB598" stroke-width="0.657087"/>
<path d="M135.617 135.022C132.532 135.022 130.032 132.522 130.032 129.437C130.032 126.353 132.532 123.852 135.617 123.852C138.702 123.852 141.202 126.353 141.202 129.437C141.202 132.522 138.702 135.022 135.617 135.022Z" fill="#FFB598" stroke="#FFB598" stroke-width="0.657087"/>
<path d="M132.875 127.531C133.418 128.034 134.481 129.282 134.384 130.247" stroke="#662D03" stroke-width="0.657087" stroke-linecap="round" stroke-linejoin="round"/>
<path d="M178.086 127.809C177.142 127.809 176.48 129.559 176.577 130.525" stroke="#662D03" stroke-width="0.657087" stroke-linecap="round" stroke-linejoin="round"/>
<path d="M174.288 117.355V133.893C174.288 144.308 165.846 152.75 155.431 152.75C145.017 152.75 136.575 144.308 136.575 133.893V117.355C136.575 104.342 149.445 95.2398 161.715 99.5763C169.25 102.239 174.288 109.363 174.288 117.355Z" fill="#FFB598" stroke="#FFB598" stroke-width="0.657087"/>
<path fill-rule="evenodd" clip-rule="evenodd" d="M136.474 115.995C136.039 117.679 136.192 123.594 136.192 123.594C136.192 123.594 134.293 123.334 132.747 124.256C130.268 125.734 129.778 127.815 129.689 128.781C129.682 128.774 129.676 128.767 129.669 128.759C128.484 127.467 127.319 126.198 126.418 124.568C125.64 123.175 125.009 121.601 125.288 120.042C125.566 118.482 127.083 117.037 128.65 117.385C128.355 117.072 128.059 116.755 127.766 116.431L127.333 115.954C126.609 115.144 125.936 114.289 125.319 113.395C125.087 113.047 124.872 112.699 124.671 112.351L124.643 112.302C124.114 111.377 123.722 110.381 123.478 109.346C123.432 109.144 123.393 108.942 123.362 108.737C123.169 107.535 123.233 106.306 123.552 105.13C123.981 103.541 124.825 102.09 125.999 100.924C127.481 99.467 129.448 98.5921 131.534 98.4629C133.793 98.2791 136.04 98.9249 137.848 100.277C134.974 97.7353 136.7 92.5303 140.164 90.8522C143.629 89.1741 146.473 88.4318 155.717 90.8522C164.961 93.2726 175.578 101.036 180.983 112.351C181.471 113.373 181.885 114.432 182.225 115.517C181.042 117.939 179.523 120.219 178.197 122.21C177.893 122.666 177.599 123.108 177.322 123.532C176.106 123.254 175.36 125.763 174.657 128.125C174.062 130.127 173.498 132.022 172.707 132.022C170.982 132.022 169.082 124.932 169.082 121.123C158.769 123.532 146.099 117.174 140.621 110.707C140.43 110.974 140.078 111.262 139.655 111.61C138.585 112.489 137.054 113.745 136.474 115.995Z" fill="#934103"/>
<path d="M123.279 108.331C123.288 108.683 123.282 109.02 123.334 109.232C123.485 110.314 123.993 111.861 124.218 112.226C124.444 112.59 125.033 113.633 125.294 113.998C125.98 114.938 126.983 116.125 126.983 116.125C126.983 116.125 127.813 117.07 128.146 117.398C127.137 117.2 125.394 118.694 125.082 120.327C124.769 121.96 125.477 123.608 126.351 125.066C127.882 127.647 127.986 127.666 129.662 128.888C129.662 128.888 129.771 125.18 134.201 123.63C134.383 123.566 135.979 123.403 135.979 123.403C135.979 119.356 135.45 119.356 136.736 114.854C139.178 111.601 140.367 110.277 140.367 110.277C138.758 108.447 135.404 105.164 133.337 103.778C131.723 102.798 129.647 102.644 127.72 102.896C126.041 103.108 124.331 103.766 123.76 104.531C123.4 105.76 123.242 106.836 123.279 108.331Z" fill="#662D03"/>
<path d="M159.586 143.355C159.586 143.355 153.3 144.098 150.805 143.355" stroke="#662D03" stroke-width="0.657087" stroke-linecap="round"/>
<path d="M153.274 129.484C151.408 131.46 151.122 138.276 151.122 138.276H154.598" stroke="#662D03" stroke-width="0.657087" stroke-linecap="round" stroke-linejoin="round"/>
<path d="M168.247 123.192C164.832 123.128 161.431 123.662 158.2 124.77" stroke="#662D03" stroke-width="0.657087" stroke-linecap="round"/>
<path d="M149.884 124.971C146.7 123.735 143.323 123.066 139.908 122.994" stroke="#662D03" stroke-width="0.657087" stroke-linecap="round"/>
<path d="M162.567 126.734C160.362 126.734 160.362 131.31 162.567 131.334H162.668C164.876 131.334 164.876 126.759 162.668 126.734H162.571H162.567Z" fill="#662D03"/>
<path d="M144.831 126.734C142.627 126.761 142.627 131.308 144.831 131.334H144.933C147.137 131.334 147.137 126.761 144.933 126.734H144.831Z" fill="#662D03"/>
<path d="M136.414 128.318C136.414 127.382 136.176 120.502 136.176 118.631C136.176 113.774 140.385 110.68 140.385 110.68" stroke="#662D03" stroke-width="0.657087" stroke-linecap="round" stroke-linejoin="round"/>
<path d="M148.67 180.59L154.399 187.262L147.422 231.727L154.774 243.415L163.446 231.166L156.094 187.45L162.588 181.085L155.455 176.652L148.67 180.59Z" fill="white"/>
<path d="M143.062 160.372L112.24 166.329L112.774 170.605L142.981 163.792L143.062 160.372Z" fill="#333333"/>
<path d="M192.928 159.762C192.928 159.762 205.042 162.528 212.459 166.825C219.876 171.121 221.652 180.785 217.408 191.519C213.164 202.254 200.093 200.826 194.086 197.894C188.08 194.962 186.304 184.303 187.362 179.65" fill="#04009A"/>
<path d="M192.928 159.762C192.928 159.762 205.042 162.528 212.459 166.825C219.876 171.121 221.652 180.785 217.408 191.519C213.164 202.254 200.093 200.826 194.086 197.894C188.08 194.962 186.304 184.303 187.362 179.65" stroke="#333333" stroke-width="0.65493" stroke-linecap="round" stroke-linejoin="round"/>
<g filter="url(#filter0_i_4307_239963)">
<path d="M203.6 192.722C211.883 192.722 218.598 185.669 218.598 176.968C218.598 168.268 211.883 161.215 203.6 161.215C195.316 161.215 188.602 168.268 188.602 176.968C188.602 185.669 195.316 192.722 203.6 192.722Z" fill="#FFB598"/>
</g>
<path d="M203.567 179.882C210.695 179.882 216.473 174.704 216.473 168.316C216.473 161.928 210.695 156.75 203.567 156.75C196.439 156.75 190.66 161.928 190.66 168.316C190.66 174.704 196.439 179.882 203.567 179.882Z" fill="#FFB598"/>
<path d="M183.937 137.927C183.937 137.927 184.178 156.145 185.103 161.516C186.028 166.888 189.778 173.894 194.921 173.894C198.348 173.809 201.739 173.181 204.968 172.031C204.968 172.031 211.036 175.3 216.876 174.363C222.716 173.425 224.202 161.689 224.202 158.129C224.202 154.569 221.696 132.1 221.696 132.1C221.696 132.1 220.782 129.137 219.527 128.571C218.272 128.004 217.463 127.761 215.711 129.218L215.711 123.228C215.711 122.063 214.265 119.788 212.039 119.788C209.813 119.788 208.464 121.521 208.464 121.521C208.464 121.521 208.449 118.127 208.106 116.411C207.778 114.771 205.427 112.666 202.624 114.275C201.957 114.658 201.396 115.199 200.989 115.851C200.582 116.503 200.343 117.245 200.293 118.012C200.293 118.012 200.052 120.825 200.052 122.928C199.084 120.348 194.984 118.543 193.984 124.093C192.652 131.484 192.578 147.505 192.578 147.505C192.246 144.338 191.622 141.208 190.715 138.155C189.55 135.115 183.937 135.115 183.937 137.927Z" fill="#FFB598"/>
<path d="M200.051 124.363L200.52 144.466" stroke="#ED9D63" stroke-width="0.848748" stroke-linecap="round" stroke-linejoin="round"/>
<path d="M208.465 122.98L208.706 144.695" stroke="#ED9D63" stroke-width="0.848748" stroke-linecap="round" stroke-linejoin="round"/>
<path d="M215.711 130.391L215.242 144.463" stroke="#ED9D63" stroke-width="0.848748" stroke-linecap="round" stroke-linejoin="round"/>
<path d="M197.027 145.637L217.438 146.562" stroke="#ED9D63" stroke-width="0.848748" stroke-linecap="round" stroke-linejoin="round"/>
<path d="M192.578 147.504C192.584 148.386 192.795 149.254 193.193 150.041C193.59 150.827 194.165 151.511 194.871 152.039C197.177 153.484 202.371 157.233 202.941 163.289" fill="#FFB598"/>
<path d="M192.578 147.504C192.584 148.386 192.795 149.254 193.193 150.041C193.59 150.827 194.165 151.511 194.871 152.039C197.177 153.484 202.371 157.233 202.941 163.289" stroke="#ED9D63" stroke-width="0.848748" stroke-linecap="round" stroke-linejoin="round"/>
<path d="M191.941 173.195C193.181 175.336 198.991 176.584 201.535 174.387C203.805 176.712 213.643 178.442 218.328 174.387" stroke="#ED9D63" stroke-width="0.7277" stroke-linecap="round"/>
<path d="M429.883 457.504H348.727C347.12 457.504 345.816 458.807 345.816 460.415V461.107C345.816 462.714 347.12 464.018 348.727 464.018H429.883C431.49 464.018 432.794 462.714 432.794 461.107V460.415C432.794 458.807 431.49 457.504 429.883 457.504Z" fill="#666666"/>
<path d="M417.48 454.063C417.809 455.851 416.436 457.5 414.617 457.5H363.991C362.173 457.5 360.799 455.851 361.128 454.063L382.642 337.126C382.896 335.745 384.1 334.742 385.505 334.742H393.104C394.509 334.742 395.713 335.745 395.967 337.126L417.48 454.063Z" fill="#04009A"/>
<path d="M374.691 380.304H403.928L401.121 365.117H377.488L374.691 380.304Z" fill="#FBF6F1"/>
<path d="M34.2968 464.036C34.0908 465.469 32.8632 466.533 31.4157 466.533H21.2186C19.4462 466.533 18.0852 464.962 18.3375 463.207L38.9347 319.957C39.1407 318.525 40.3683 317.461 41.8158 317.461H52.0129C53.7853 317.461 55.1463 319.032 54.894 320.786L34.2968 464.036Z" fill="#666666"/>
<path d="M65.7354 464.036C65.9415 465.469 67.1691 466.533 68.6166 466.533H78.8024C80.5748 466.533 81.9358 464.962 81.6835 463.207L61.0864 319.957C60.8803 318.525 59.6527 317.461 58.2052 317.461H48.0194C46.247 317.461 44.886 319.032 45.1383 320.786L65.7354 464.036Z" fill="#8C837C"/>
<path d="M262.407 464.036C262.201 465.469 260.973 466.533 259.525 466.533H249.339C247.567 466.533 246.206 464.962 246.458 463.208L267.045 319.958C267.251 318.525 268.478 317.461 269.926 317.461H280.123C281.895 317.461 283.256 319.032 283.004 320.786L262.407 464.036Z" fill="#666666"/>
<path d="M293.845 464.036C294.051 465.469 295.278 466.533 296.726 466.533H306.912C308.684 466.533 310.045 464.962 309.793 463.207L289.196 319.957C288.99 318.525 287.762 317.461 286.315 317.461H276.129C274.356 317.461 272.995 319.032 273.248 320.786L293.845 464.036Z" fill="#8C837C"/>
<path d="M307.089 294.082H6.47003C3.25485 294.082 0.648438 296.688 0.648438 299.904V317.915C0.648438 321.13 3.25485 323.737 6.47003 323.737H307.089C310.304 323.737 312.911 321.13 312.911 317.915V299.904C312.911 296.688 310.304 294.082 307.089 294.082Z" fill="#FFB131"/>
<path d="M11.3203 323.737H37.3436L50.795 294.082H24.7717L11.3203 323.737Z" fill="#666666"/>
<path d="M114.33 294.082H88.3068L74.8555 323.737H100.879L114.33 294.082Z" fill="#666666"/>
<path d="M304.924 294.082H278.901L265.461 323.737H291.484L304.924 294.082Z" fill="#666666"/>
<path d="M241.4 294.082H215.366L201.926 323.737H227.949L241.4 294.082Z" fill="#666666"/>
<path d="M177.865 294.082H151.842L138.391 323.737H164.414L177.865 294.082Z" fill="#666666"/>
<defs>
<filter id="filter0_i_4307_239963" x="188.602" y="161.215" width="29.9961" height="31.5078" filterUnits="userSpaceOnUse" color-interpolation-filters="sRGB">
<feFlood flood-opacity="0" result="BackgroundImageFix"/>
<feBlend mode="normal" in="SourceGraphic" in2="BackgroundImageFix" result="shape"/>
<feColorMatrix in="SourceAlpha" type="matrix" values="0 0 0 0 0 0 0 0 0 0 0 0 0 0 0 0 0 0 127 0" result="hardAlpha"/>
<feOffset dy="-4.3662"/>
<feComposite in2="hardAlpha" operator="arithmetic" k2="-1" k3="1"/>
<feColorMatrix type="matrix" values="0 0 0 0 0.929412 0 0 0 0 0.615686 0 0 0 0 0.388235 0 0 0 1 0"/>
<feBlend mode="normal" in2="shape" result="effect1_innerShadow_4307_239963"/>
</filter>
<clipPath id="clip0_4307_239963">
<rect width="315.822" height="173.192" fill="white" transform="translate(130.531)"/>
</clipPath>
</defs>
</svg>
