<svg width="465" height="481" viewBox="0 0 465 481" fill="none" xmlns="http://www.w3.org/2000/svg">
<g clip-path="url(#clip0_4307_238684)">
<path d="M188.081 63.7852H7.59843C3.42782 63.7852 0.046875 67.1806 0.046875 71.369V203.708C0.046875 207.896 3.42782 211.292 7.59843 211.292H188.081C192.251 211.292 195.632 207.896 195.632 203.708V71.369C195.632 67.1806 192.251 63.7852 188.081 63.7852Z" fill="#FBF6F1"/>
<path d="M29.4565 199.817C19.6796 199.817 11.7539 191.776 11.7539 181.856C11.7539 171.936 19.6796 163.895 29.4565 163.895C39.2333 163.895 47.159 171.936 47.159 181.856C47.159 191.776 39.2333 199.817 29.4565 199.817ZM29.4951 181.781C30.8015 181.781 31.8604 180.72 31.8604 179.412C31.8604 178.103 30.8015 177.043 29.4951 177.043C28.1888 177.043 27.1299 178.103 27.1299 179.412C27.1299 180.72 28.1888 181.781 29.4951 181.781ZM29.4951 182.965C27.1275 182.965 25.2081 184.888 25.2081 187.259H33.7822C33.7822 184.888 31.8628 182.965 29.4951 182.965Z" fill="#EEE2D8"/>
<path d="M11.7518 95.6401C11.7518 94.801 12.4252 94.1207 13.2617 94.1207H138.252C139.086 94.1207 139.762 94.7997 139.762 95.6401V149.957C139.762 150.796 139.088 151.477 138.252 151.477H13.2617C12.4278 151.477 11.7518 150.798 11.7518 149.957V95.6401ZM59.1005 178.508H158.305C159.849 178.508 161.1 179.765 161.1 181.315V182.829C161.1 184.379 159.849 185.636 158.305 185.636H59.1005C57.5571 185.636 56.306 184.379 56.306 182.829V181.315C56.306 179.765 57.5571 178.508 59.1005 178.508ZM59.1005 190.091H176.067C177.61 190.091 178.861 191.347 178.861 192.897V194.412C178.861 195.962 177.61 197.218 176.067 197.218H59.1005C57.5571 197.218 56.306 195.962 56.306 194.412V192.897C56.306 191.347 57.5571 190.091 59.1005 190.091ZM59.1005 166.926H133.439C134.982 166.926 136.233 168.183 136.233 169.733V171.247C136.233 172.797 134.982 174.054 133.439 174.054H59.1005C57.5571 174.054 56.306 172.797 56.306 171.247V169.733C56.306 168.183 57.5571 166.926 59.1005 166.926ZM0.046875 71.3707C0.046875 67.1813 3.42754 63.7852 7.60131 63.7852H188.455C192.628 63.7852 196.01 67.1816 196.01 71.3707V80.4697H0.046875V71.3707Z" fill="#CDCDCD"/>
<path d="M154.889 138.938H177.974C179.27 138.938 180.39 139.201 181.313 139.697C182.236 140.193 182.961 140.92 183.454 141.847C183.948 142.774 184.211 143.899 184.211 145.201V145.221C184.211 146.522 183.948 147.647 183.454 148.574C182.961 149.501 182.236 150.229 181.313 150.724C180.39 151.22 179.27 151.484 177.974 151.484H154.889C153.593 151.484 152.473 151.22 151.55 150.724C150.627 150.229 149.902 149.501 149.409 148.574C148.915 147.647 148.652 146.522 148.652 145.221V145.201C148.652 143.899 148.915 142.774 149.409 141.847C149.902 140.92 150.627 140.193 151.55 139.697C152.473 139.201 153.593 138.938 154.889 138.938Z" fill="#EEE2D8"/>
<path d="M11.1886 75.9156C13.1696 75.9156 14.7755 74.3028 14.7755 72.3133C14.7755 70.3238 13.1696 68.7109 11.1886 68.7109C9.20751 68.7109 7.60156 70.3238 7.60156 72.3133C7.60156 74.3028 9.20751 75.9156 11.1886 75.9156Z" fill="#F83131"/>
<path d="M22.8917 75.9156C24.8727 75.9156 26.4787 74.3028 26.4787 72.3133C26.4787 70.3238 24.8727 68.7109 22.8917 68.7109C20.9106 68.7109 19.3047 70.3238 19.3047 72.3133C19.3047 74.3028 20.9106 75.9156 22.8917 75.9156Z" fill="#FFDC23"/>
<path d="M34.9737 75.9156C36.9548 75.9156 38.5607 74.3028 38.5607 72.3133C38.5607 70.3238 36.9548 68.7109 34.9737 68.7109C32.9927 68.7109 31.3867 70.3238 31.3867 72.3133C31.3867 74.3028 32.9927 75.9156 34.9737 75.9156Z" fill="#00A76F"/>
</g>
<path d="M428.855 272.738H279.487C273.622 272.738 268.832 268.408 268.832 263.105V174.156C268.832 168.854 273.622 164.523 279.487 164.523H428.855C434.72 164.523 439.51 168.854 439.51 174.156V263.061C439.51 268.408 434.72 272.738 428.855 272.738Z" fill="#FBF6F1"/>
<path d="M268.883 163.939C268.883 158.553 273.26 154.188 278.659 154.188H429.687C435.087 154.188 439.463 158.556 439.463 163.939V175.148H268.883V163.939Z" fill="#CDCDCD"/>
<path d="M295.154 214.638H313.972C315.524 214.638 316.782 215.892 316.782 217.44C316.782 218.988 315.524 220.243 313.972 220.243H295.154C293.602 220.243 292.344 218.988 292.344 217.44C292.344 215.892 293.602 214.638 295.154 214.638ZM295.154 245.835H313.972C315.524 245.835 316.782 247.09 316.782 248.638C316.782 250.185 315.524 251.44 313.972 251.44H295.154C293.602 251.44 292.344 250.185 292.344 248.638C292.344 247.09 293.602 245.835 295.154 245.835ZM323.992 214.638H342.809C344.361 214.638 345.62 215.892 345.62 217.44C345.62 218.988 344.361 220.243 342.809 220.243H323.992C322.439 220.243 321.181 218.988 321.181 217.44C321.181 215.892 322.439 214.638 323.992 214.638ZM323.992 245.835H342.809C344.361 245.835 345.62 247.09 345.62 248.638C345.62 250.185 344.361 251.44 342.809 251.44H323.992C322.439 251.44 321.181 250.185 321.181 248.638C321.181 247.09 322.439 245.835 323.992 245.835ZM352.829 214.638H371.647C373.199 214.638 374.457 215.892 374.457 217.44C374.457 218.988 373.199 220.243 371.647 220.243H352.829C351.277 220.243 350.019 218.988 350.019 217.44C350.019 215.892 351.277 214.638 352.829 214.638ZM352.829 245.835H371.647C373.199 245.835 374.457 247.09 374.457 248.638C374.457 250.185 373.199 251.44 371.647 251.44H352.829C351.277 251.44 350.019 250.185 350.019 248.638C350.019 247.09 351.277 245.835 352.829 245.835ZM295.154 199.039H330.101C331.653 199.039 332.912 200.294 332.912 201.842C332.912 203.39 331.653 204.645 330.101 204.645H295.154C293.602 204.645 292.344 203.39 292.344 201.842C292.344 200.294 293.602 199.039 295.154 199.039ZM374.335 199.039H413.681C415.233 199.039 416.491 200.294 416.491 201.842C416.491 203.39 415.233 204.645 413.681 204.645H374.335C372.783 204.645 371.524 203.39 371.524 201.842C371.524 200.294 372.783 199.039 374.335 199.039ZM374.335 230.236H413.681C415.233 230.236 416.491 231.491 416.491 233.039C416.491 234.587 415.233 235.842 413.681 235.842H374.335C372.783 235.842 371.524 234.587 371.524 233.039C371.524 231.491 372.783 230.236 374.335 230.236ZM340.121 230.236H347.208C348.76 230.236 350.019 231.491 350.019 233.039C350.019 234.587 348.76 235.842 347.208 235.842H340.121C338.569 235.842 337.311 234.587 337.311 233.039C337.311 231.491 338.569 230.236 340.121 230.236ZM357.228 199.039H364.315C365.867 199.039 367.126 200.294 367.126 201.842C367.126 203.39 365.867 204.645 364.315 204.645H357.228C355.676 204.645 354.418 203.39 354.418 201.842C354.418 200.294 355.676 199.039 357.228 199.039ZM381.666 214.638H413.681C415.233 214.638 416.491 215.892 416.491 217.44C416.491 218.988 415.233 220.243 413.681 220.243H381.666C380.114 220.243 378.856 218.988 378.856 217.44C378.856 215.892 380.114 214.638 381.666 214.638Z" fill="#CDCDCD"/>
<path d="M295.154 230.234H330.101C331.653 230.234 332.912 231.489 332.912 233.037C332.912 234.585 331.653 235.84 330.101 235.84H295.154C293.602 235.84 292.344 234.585 292.344 233.037C292.344 231.489 293.602 230.234 295.154 230.234ZM357.228 230.234H364.315C365.867 230.234 367.126 231.489 367.126 233.037C367.126 234.585 365.867 235.84 364.315 235.84H357.228C355.676 235.84 354.418 234.585 354.418 233.037C354.418 231.489 355.676 230.234 357.228 230.234Z" fill="#007AFF"/>
<path d="M340.119 199.039H347.206C348.758 199.039 350.017 200.294 350.017 201.842C350.017 203.39 348.758 204.645 347.206 204.645H340.119C338.567 204.645 337.309 203.39 337.309 201.842C337.309 200.294 338.567 199.039 340.119 199.039ZM381.664 245.835H413.679C415.231 245.835 416.489 247.09 416.489 248.638C416.489 250.185 415.231 251.44 413.679 251.44H381.664C380.112 251.44 378.854 250.185 378.854 248.638C378.854 247.09 380.112 245.835 381.664 245.835Z" fill="#FFDC23"/>
<path d="M429.034 206.22L403.941 189.711C403.606 189.949 403.606 189.949 403.305 190.222L412.685 219.052C412.685 219.052 416.37 218.542 419.218 216.908L423.473 222.49C425.156 221.535 426.345 220.784 427.039 220.239C427.734 219.693 428.611 218.821 429.671 217.623L425.416 212.006C426.622 210.066 427.828 208.126 429.034 206.22Z" fill="#04009A"/>
<path d="M291.68 384.919H322.084C323.007 384.919 323.814 384.1 323.814 383.117V382.912C323.814 381.929 323.007 381.11 322.007 381.11H293.833C276.767 381.11 259.701 381.11 242.674 381.11H216.537C215.614 381.11 214.807 381.929 214.807 382.912V383.117C214.807 384.1 215.576 384.919 216.537 384.919H253.629L243.404 404.905C236.14 419.158 228.875 433.37 221.572 447.622L209.541 471.131C209.118 471.95 209.464 473.015 210.272 473.506L210.425 473.588C211.233 474.039 212.27 473.793 212.655 473.015L257.664 384.919H287.645L332.654 473.015C333.039 473.793 334.077 474.079 334.884 473.588L335.038 473.506C335.845 473.015 336.191 471.95 335.768 471.131L323.737 447.622C316.473 433.37 309.208 419.158 301.905 404.905L291.68 384.919ZM323.699 368.869V345.056C323.699 326.895 323.699 308.775 323.699 290.655V269.014C323.699 265.622 321.117 262.871 317.933 262.871H255.204C252.02 262.871 249.439 265.622 249.439 269.014V368.94C249.439 372.333 252.02 375.083 255.204 375.083C255.206 375.083 255.208 375.083 255.21 375.083L317.939 375.013C321.121 375.009 323.699 372.26 323.699 368.869Z" fill="#8C837C"/>
<path d="M233.845 353.267C234.04 360.763 228.124 367.058 220.631 367.328L165.985 369.297C158.492 369.567 152.259 363.709 152.063 356.213C151.868 348.718 157.784 342.422 165.277 342.152L219.923 340.184C227.416 339.914 233.649 345.771 233.845 353.267Z" fill="#666666" stroke="#666666" stroke-width="0.631483"/>
<path d="M204.933 450.655C201.748 444.797 203.915 437.467 209.773 434.282C215.522 431.156 222.716 433.181 225.991 438.847L234.07 452.825C238.444 460.392 233.738 469.977 225.076 471.145C220.025 471.825 215.079 469.316 212.644 464.839L204.933 450.655Z" fill="#FFB598" stroke="#FFB598" stroke-width="0.631483"/>
<path d="M239.822 457.821C239.413 456.93 238.525 456.356 237.544 456.349L205.979 456.132C205.04 456.126 204.175 456.641 203.733 457.469L200.576 463.385C200.37 463.771 200.066 464.098 199.696 464.331L189.632 470.685C187.498 472.032 188.442 475.331 190.966 475.346L244.066 475.669C245.914 475.68 247.148 473.768 246.376 472.088L239.822 457.821Z" fill="#662D03"/>
<path d="M198.918 448.393L198.728 448.393L198.639 448.225L154.189 363.866C150.495 356.854 153.109 348.175 160.062 344.371C167.067 340.537 175.854 343.084 179.723 350.071L233.915 447.925L234.175 448.393L233.639 448.393L198.918 448.393Z" fill="#666666" stroke="#666666" stroke-width="0.631483"/>
<path d="M155.305 362.305C151.443 356.289 153.188 348.28 159.205 344.418C165.221 340.555 173.23 342.301 177.092 348.317C180.955 354.333 179.209 362.342 173.193 366.205C167.176 370.067 159.168 368.321 155.305 362.305Z" fill="#666666" stroke="#666666" stroke-width="0.631483"/>
<path d="M282.066 358.277C282.066 347.046 272.255 338.237 261.094 339.444L202.286 345.805C193.622 346.742 187.208 354.197 187.569 362.91C187.947 372.044 195.607 379.246 204.748 379.061L262.839 377.886C273.55 377.67 282.066 368.985 282.066 358.277Z" fill="#666666" stroke="#666666" stroke-width="0.631483"/>
<path d="M141.888 472.347L156.837 443.687L134.449 435.352L114.179 464.085L141.888 472.347Z" fill="#FFB598" stroke="#FFB598" stroke-width="0.631483"/>
<path d="M153.763 457.918C154.443 456.258 153.225 454.438 151.431 454.434L115.845 454.365C115.474 454.365 115.108 454.446 114.772 454.603L98.9412 461.995C98.8064 462.058 98.6774 462.132 98.5558 462.218L86.7972 470.497C84.7828 471.915 85.7828 475.083 88.2465 475.088L144.984 475.197C146.011 475.199 146.936 474.579 147.326 473.629L153.763 457.918Z" fill="#662D03"/>
<path d="M186.522 355.752C191.639 348.812 201.395 347.299 208.374 352.363C215.529 357.554 216.988 367.628 211.598 374.636L155.007 448.222L118.336 448.222L186.522 355.752Z" fill="#666666" stroke="#666666" stroke-width="0.631483"/>
<path d="M209.168 369.163C213.761 363.684 213.043 355.519 207.565 350.925C202.086 346.332 193.921 347.05 189.327 352.529C184.734 358.008 185.452 366.173 190.931 370.766C196.41 375.359 204.575 374.641 209.168 369.163Z" fill="#666666" stroke="#666666" stroke-width="0.631483"/>
<path d="M270.222 359.618H270.538V359.302V315.562C270.538 307.017 263.611 300.091 255.066 300.091H224.406C215.861 300.091 208.934 307.017 208.934 315.562V359.302V359.618H209.25H270.222Z" fill="#666666" stroke="#666666" stroke-width="0.631483"/>
<path d="M211.106 338.488L211.143 338.761H211.418H270.332H270.604L270.644 338.492L282.803 257.126C283.131 254.935 281.661 252.88 279.482 252.481L241.817 245.597C241.245 245.493 240.658 245.511 240.094 245.651L203.389 254.728C201.353 255.231 200.024 257.189 200.307 259.267L211.106 338.488Z" fill="#04009A" stroke="#04009A" stroke-width="0.631483"/>
<path d="M209.321 255.71C214.781 258.487 217.077 265.184 214.449 270.669C211.822 276.155 205.266 278.35 199.806 275.573L157.54 254.076C152.08 251.299 149.784 244.601 152.412 239.116C155.039 233.631 161.595 231.436 167.055 234.213L209.321 255.71Z" fill="#FFB598" stroke="#FFB598" stroke-width="0.631483"/>
<mask id="mask0_4307_238684" style="mask-type:alpha" maskUnits="userSpaceOnUse" x="151" y="232" width="65" height="46">
<path d="M209.321 255.706C214.781 258.483 217.077 265.18 214.449 270.666C211.822 276.151 205.266 278.346 199.806 275.569L157.54 254.072C152.08 251.295 149.784 244.597 152.412 239.112C155.039 233.627 161.595 231.432 167.055 234.209L209.321 255.706Z" fill="#F8DAC3" stroke="#F8DAC3" stroke-width="0.631483"/>
</mask>
<g mask="url(#mask0_4307_238684)">
<path d="M216.598 271.483C219.622 265.226 217.213 257.719 211.217 254.717L184.544 241.174L176.106 264.887L200.263 277.378C206.259 280.38 213.573 277.741 216.598 271.483Z" fill="#ED9D63"/>
</g>
<path d="M212.729 254.625L212.729 254.625L212.725 254.623L187.431 242.439L187.146 242.302L187.013 242.586L176.598 264.815L176.467 265.095L176.744 265.236L201.499 277.851L201.501 277.852C207.917 281.064 215.632 278.468 218.732 272.054C221.833 265.64 219.145 257.837 212.729 254.625Z" fill="#04009A" stroke="#04009A" stroke-width="0.631483"/>
<path d="M157.769 232.627L195.97 200.943L209.705 218.894L170.448 249.199C166.044 252.599 159.74 251.7 156.28 247.178C152.821 242.657 153.483 236.182 157.769 232.627Z" fill="#FFB598" stroke="#FFB598" stroke-width="0.573419"/>
<circle r="10.4348" transform="matrix(-0.702106 -0.721991 0.686282 -0.71777 162.096 242.501)" fill="#FFB598" stroke="#FFB598" stroke-width="0.573419"/>
<path d="M190.812 203.891C187.374 209.437 187.979 214.275 193.316 219.35C198.654 224.424 203.291 224.23 210.181 219.253C215.252 215.591 221.554 210.354 222.838 206.429C223.353 204.851 223.201 202.766 221.907 202.142C220.614 201.518 219.689 202.732 218.788 204.224C217.769 205.911 216.017 207.849 214.598 207.132C213.761 206.709 213.467 204.89 214.093 203.749C215.12 201.876 216.232 200.52 217.77 198.914C218.822 197.816 219.786 196.854 220.488 196.168C220.838 195.825 221.122 195.551 221.317 195.364L221.596 195.098C222.854 193.811 222.794 192.21 221.886 191.193C220.141 189.242 218.362 190.849 218.118 191.088C218.425 190.779 218.67 190.537 218.838 190.372C218.925 190.287 219.035 190.18 219.035 190.18C219.986 189.264 219.91 187.998 219.045 187.024C218.179 186.051 216.798 186.09 216.037 186.529C215.276 186.967 214.367 187.843 214.367 187.843C212.861 185.613 210.825 185.794 209.83 186.455C208.835 187.116 207.72 188.146 206.33 189.649C206.121 189.875 205.981 190.032 205.801 190.232C205.725 189.83 205.539 189.441 205.242 189.117C204.424 188.223 203.339 188.45 202.368 189.186C201.398 189.923 198.376 192.933 196.792 195.05C195.209 197.168 194.25 198.345 190.812 203.891Z" fill="#FFB598"/>
<path d="M205.801 190.232C205.725 189.83 205.539 189.441 205.242 189.117C204.424 188.223 203.339 188.45 202.368 189.186C201.398 189.923 198.376 192.933 196.792 195.05C195.209 197.168 194.25 198.345 190.812 203.891C187.374 209.437 187.979 214.275 193.316 219.35C198.654 224.424 203.291 224.23 210.181 219.253C215.252 215.591 221.554 210.354 222.838 206.429C223.353 204.851 223.201 202.766 221.907 202.142C220.614 201.518 219.689 202.732 218.788 204.224C217.769 205.911 216.017 207.849 214.598 207.132C213.761 206.709 213.467 204.89 214.093 203.749C215.12 201.876 216.232 200.52 217.77 198.914C218.822 197.816 219.786 196.854 220.488 196.168C220.838 195.825 221.122 195.551 221.317 195.364L221.596 195.098C222.854 193.811 222.794 192.21 221.886 191.193C220.008 189.092 218.089 191.116 218.089 191.116M205.801 190.232C205.981 190.032 206.121 189.875 206.33 189.649C207.72 188.146 208.835 187.116 209.83 186.455C210.825 185.794 212.861 185.613 214.367 187.843M205.801 190.232C204.338 191.823 201.76 194.757 201.224 195.645M214.367 187.843C214.367 187.843 211.925 190.16 211.615 190.47M214.367 187.843C214.367 187.843 212.693 189.457 211.615 190.47M214.367 187.843C214.367 187.843 215.276 186.967 216.037 186.529C216.798 186.09 218.179 186.051 219.045 187.024C219.91 187.998 219.986 189.264 219.035 190.18C219.035 190.18 218.925 190.287 218.838 190.372C218.665 190.542 218.41 190.794 218.089 191.116M211.615 190.47C209.516 192.606 208.172 194.119 206.271 196.444M218.089 191.116C217.447 191.761 216.54 192.686 215.489 193.802C215.489 193.802 212.264 197.3 210.568 199.349M218.089 191.116C218.089 191.116 217.835 191.378 217.731 191.477C217.525 191.674 217.293 191.94 216.929 192.296C216.202 193.008 214.151 195.244 214.151 195.244" stroke="#FFB598" stroke-width="0.573419" stroke-linecap="round" stroke-linejoin="round"/>
<path d="M205.534 190.044C204.093 191.394 201.239 194.348 201.35 195.357M213.879 188.284C211.386 190.348 206.242 195.065 205.605 197.424M209.077 201.184C210.604 198.973 214.658 193.795 218.664 190.766" stroke="#ED9D63" stroke-width="0.573419" stroke-linecap="round" stroke-linejoin="round"/>
<path d="M201.379 272.426L209.557 332.817" stroke="white" stroke-width="0.631483" stroke-linecap="round" stroke-linejoin="round"/>
<path d="M287.855 265.519C286.429 259.584 280.452 255.877 274.503 257.241C268.555 258.604 264.889 264.521 266.314 270.456L277.349 316.403C278.774 322.338 284.752 326.044 290.7 324.681C296.648 323.317 300.315 317.4 298.89 311.465L287.855 265.519Z" fill="#FFB598" stroke="#FFB598" stroke-width="0.631483"/>
<mask id="mask1_4307_238684" style="mask-type:alpha" maskUnits="userSpaceOnUse" x="265" y="256" width="35" height="70">
<path d="M287.851 265.523C286.425 259.587 280.448 255.881 274.5 257.245C268.551 258.608 264.885 264.525 266.31 270.46L277.345 316.407C278.77 322.342 284.748 326.048 290.696 324.684C296.645 323.321 300.311 317.404 298.886 311.469L287.851 265.523Z" fill="#F8DAC3" stroke="#F8DAC3" stroke-width="0.631483"/>
</mask>
<g mask="url(#mask1_4307_238684)">
<path d="M274.202 255.6C280.994 254.017 287.786 258.242 289.372 265.035L296.131 290.734L270.27 295.956L264.774 270.765C263.188 263.972 267.409 257.182 274.202 255.6Z" fill="#ED9D63"/>
</g>
<path d="M296.084 287.279L296.007 286.979L289.699 262.431C288.072 255.47 281.112 251.142 274.151 252.763C267.189 254.385 262.862 261.344 264.487 268.307L296.084 287.279ZM296.084 287.279L295.787 287.362L270.84 294.348L270.521 294.437L270.447 294.115L264.487 268.308L296.084 287.279Z" fill="#04009A" stroke="#04009A" stroke-width="0.631483"/>
<path d="M287.35 315.409L230.793 318.92L232.103 339.975L288.778 333.943C293.927 333.395 297.664 328.739 297.087 323.591C296.537 318.694 292.265 315.104 287.35 315.409Z" fill="#FFB598" stroke="#FFB598" stroke-width="0.631483"/>
<path d="M289.38 311C283.038 310.74 277.702 315.67 277.46 322.012C277.218 328.354 282.162 333.706 288.504 333.966C294.845 334.226 300.182 329.296 300.424 322.954C300.666 316.612 295.721 311.26 289.38 311Z" fill="#FFB598" stroke="#FFB598" stroke-width="0.631483"/>
<path d="M229.937 319.091C235.426 319.062 237.066 321.939 237.777 326.286C238.488 330.633 237.446 336.545 231.436 338.571C224.998 340.742 210.876 338.429 206.605 338.019C204.889 337.854 202.45 337.411 202.813 336.499C202.176 336.744 197.528 336.123 197.528 336.123C195.244 336.15 193.637 335.422 193.394 334.614C192.956 333.16 195.581 332.805 196.268 332.738C195.763 332.742 195.062 332.447 195.062 332.447C193.613 332.719 192.798 331.705 192.562 330.933C192.325 330.162 192.99 329.342 193.896 329.038C194.802 328.734 195.813 328.642 195.813 328.642C194.94 327.145 196.512 326.046 197.773 325.674C199.033 325.302 200.695 324.97 202.955 324.618C203.258 324.571 203.476 324.539 203.73 324.502L203.825 324.488C203.531 324.328 203.031 324.665 202.958 324.404C202.757 323.682 204.196 322.92 205.505 322.585C206.814 322.249 215.277 319.433 218.201 319.15C221.125 318.868 224.448 319.119 229.937 319.091Z" fill="#FFB598"/>
<path d="M203.825 324.488C203.531 324.328 203.031 324.665 202.958 324.404C202.757 323.682 204.196 322.92 205.505 322.585C206.814 322.249 215.277 319.433 218.201 319.15C221.125 318.868 224.448 319.119 229.937 319.091C235.426 319.062 237.066 321.939 237.777 326.286C238.488 330.633 237.446 336.545 231.436 338.571C224.998 340.742 210.876 338.429 206.605 338.019C204.889 337.854 202.45 337.411 202.813 336.499C202.176 336.744 197.528 336.123 197.528 336.123C195.244 336.15 193.637 335.422 193.394 334.614C192.891 332.944 196.429 332.724 196.429 332.724M203.825 324.488C203.528 324.532 203.294 324.566 202.955 324.618C200.695 324.97 199.033 325.302 197.773 325.674C196.512 326.046 194.94 327.145 195.813 328.642M203.825 324.488C206.211 324.12 210.529 323.511 211.666 323.465M195.813 328.642C195.813 328.642 199.505 327.931 199.987 327.846M195.813 328.642C195.813 328.642 198.366 328.162 199.987 327.846M195.813 328.642C195.813 328.642 194.802 328.734 193.896 329.038C192.99 329.342 192.325 330.162 192.562 330.933C192.798 331.705 193.613 332.719 195.062 332.447C195.062 332.447 195.928 332.812 196.429 332.724M199.987 327.846C203.285 327.276 205.522 326.953 208.845 326.55M196.429 332.724C197.43 332.547 198.857 332.302 200.548 332.03C200.548 332.03 205.802 331.217 208.744 330.851M196.429 332.724C196.429 332.724 196.831 332.655 196.988 332.626C197.301 332.566 197.692 332.512 198.251 332.409C199.37 332.203 202.72 331.69 202.72 331.69" stroke="#FFB598" stroke-width="0.631483" stroke-linecap="round" stroke-linejoin="round"/>
<path d="M220.478 318.597C228.913 317.892 233.574 319.908 237.935 320.997" stroke="#ED9D63" stroke-width="0.631483" stroke-linecap="round" stroke-linejoin="round"/>
<path d="M196.047 332.984C199.179 332.363 206.925 331.347 211.303 331.48" stroke="#ED9D63" stroke-width="0.631483" stroke-linecap="round" stroke-linejoin="round"/>
<path d="M196.994 328.615C200.57 327.257 209.124 326.015 214.104 326.519" stroke="#ED9D63" stroke-width="0.631483" stroke-linecap="round" stroke-linejoin="round"/>
<path d="M229.867 237.604C229.867 232.185 234.259 227.792 239.678 227.792C245.097 227.792 249.49 232.185 249.49 237.604V247.182C249.49 252.601 245.097 256.994 239.678 256.994C234.259 256.994 229.867 252.601 229.867 247.182V237.604Z" fill="#FFB598" stroke="#FFB598" stroke-width="0.631483"/>
<mask id="mask2_4307_238684" style="mask-type:alpha" maskUnits="userSpaceOnUse" x="229" y="229" width="21" height="31">
<path d="M229.87 239.499C229.87 234.08 234.263 229.687 239.682 229.687C245.101 229.687 249.494 234.08 249.494 239.499V249.076C249.494 254.495 245.101 258.888 239.682 258.888C234.263 258.888 229.87 254.495 229.87 249.076V239.499Z" fill="#F8DAC3" stroke="#F8DAC3" stroke-width="0.631483"/>
</mask>
<g mask="url(#mask2_4307_238684)">
<path d="M216.281 199.168C216.281 187.818 225.482 178.617 236.832 178.617C248.182 178.617 257.383 187.818 257.383 199.168V222.244C257.383 233.594 248.182 242.795 236.832 242.795C225.482 242.795 216.281 233.594 216.281 222.244V199.168Z" fill="#ED9D63"/>
</g>
<path d="M208.966 199.929C208.997 200.122 209.035 200.312 209.079 200.502C209.316 201.476 209.696 202.412 210.209 203.282L210.237 203.328C210.431 203.656 210.64 203.983 210.865 204.311C211.463 205.151 212.115 205.955 212.818 206.717L213.238 207.166C213.522 207.471 213.809 207.769 214.096 208.063C212.576 207.736 211.104 209.095 210.834 210.562C210.564 212.029 211.176 213.509 211.93 214.819C213.252 217.137 215.158 218.679 216.834 220.693C218.091 222.193 218.788 223.968 220.157 225.402L220.26 225.51C223.876 229.151 229.586 230.003 234.34 231.558C236.047 232.121 243.789 241.376 253.317 237.866C255.439 237.085 256.376 236.3 258.661 234.201C266.857 226.738 269.727 213.217 264.85 203.328C259.608 192.686 248.43 184.349 240.346 183.108C232.262 181.867 228.623 181.53 225.263 183.108C221.902 184.686 220.229 189.582 223.015 191.972C221.263 190.701 219.083 190.093 216.892 190.266C214.869 190.388 212.961 191.21 211.524 192.581C210.386 193.678 209.567 195.042 209.151 196.537C208.842 197.643 208.779 198.799 208.966 199.929Z" fill="#934103"/>
<path d="M253.363 218.992C253.363 216.027 255.766 213.624 258.73 213.624C261.695 213.624 264.098 216.027 264.098 218.992C264.098 221.956 261.695 224.36 258.73 224.36C255.766 224.36 253.363 221.956 253.363 218.992Z" fill="#FFB598" stroke="#FFB598" stroke-width="0.631483"/>
<path d="M215.269 218.992C215.269 216.027 217.672 213.624 220.636 213.624C223.601 213.624 226.004 216.027 226.004 218.992C226.004 221.956 223.601 224.36 220.636 224.36C217.672 224.36 215.269 221.956 215.269 218.992Z" fill="#FFB598" stroke="#FFB598" stroke-width="0.631483"/>
<path d="M218 217.152C218.522 217.636 219.543 218.834 219.45 219.763" stroke="#662D03" stroke-width="0.631483" stroke-linecap="round" stroke-linejoin="round"/>
<path d="M261.453 217.426C260.546 217.426 259.91 219.108 260.003 220.036" stroke="#662D03" stroke-width="0.631483" stroke-linecap="round" stroke-linejoin="round"/>
<path d="M221.558 207.38C221.558 194.874 233.927 186.126 245.719 190.294C252.96 192.853 257.802 199.7 257.802 207.38V223.274C257.802 233.282 249.688 241.396 239.68 241.396C229.671 241.396 221.558 233.282 221.558 223.274V207.38Z" fill="#FFB598" stroke="#FFB598" stroke-width="0.631483"/>
<mask id="mask3_4307_238684" style="mask-type:alpha" maskUnits="userSpaceOnUse" x="198" y="171" width="70" height="51">
<path d="M221.192 213.377C221.192 213.377 221.046 207.693 221.463 206.074C222.241 203.056 224.801 201.897 225.449 200.992C230.714 207.207 242.89 213.317 252.801 211.002C252.801 214.663 254.627 221.477 256.284 221.477C257.942 221.477 258.561 212.824 260.719 213.317C264.976 206.807 273.269 196.145 260.719 188.246L261.751 186.775L263.614 185.661C262.083 183.956 256.365 183.163 254.823 185.441C254.823 185.441 252.131 177.978 240.264 172.851C226.53 166.917 206.285 183.708 206.285 183.708L198.755 197.901L214.929 218.872C214.929 218.872 214.683 215.92 217.882 214.013C219.368 213.127 221.192 213.377 221.192 213.377Z" fill="#D9D9D9"/>
</mask>
<g mask="url(#mask3_4307_238684)">
<path d="M208.863 199.099C208.894 199.296 208.931 199.49 208.975 199.684C209.21 200.679 209.587 201.636 210.095 202.525L210.122 202.572C210.315 202.906 210.521 203.241 210.745 203.576C211.337 204.435 211.984 205.256 212.68 206.035L213.097 206.493C213.377 206.804 213.662 207.109 213.946 207.41C212.44 207.075 210.982 208.464 210.714 209.963C210.447 211.462 211.053 212.974 211.801 214.313C213.11 216.681 214.998 218.257 216.66 220.315C217.905 221.848 218.595 223.661 219.952 225.127L220.054 225.237C223.637 228.958 229.295 229.828 234.006 231.417C235.698 231.992 254.046 237.145 254.046 238.269C254.046 238.025 255.842 236.262 258.106 234.117C266.228 226.492 269.071 212.676 264.239 202.572C259.045 191.698 248.842 184.237 239.958 181.911C231.074 179.585 228.341 180.298 225.011 181.911C221.682 183.524 220.023 188.526 222.785 190.968C221.048 189.669 218.888 189.048 216.717 189.225C214.713 189.349 212.822 190.19 211.398 191.591C210.27 192.711 209.459 194.105 209.046 195.632C208.74 196.762 208.678 197.943 208.863 199.099Z" fill="#934103"/>
<path d="M208.778 198.713C208.787 199.051 208.781 199.375 208.831 199.578C208.976 200.618 209.464 202.105 209.68 202.456C209.897 202.806 210.464 203.809 210.715 204.159C211.374 205.062 212.338 206.203 212.338 206.203C212.338 206.203 213.135 207.111 213.455 207.426C212.485 207.236 210.81 208.672 210.51 210.241C210.21 211.811 210.89 213.394 211.73 214.796C213.202 217.276 215.323 218.926 217.19 221.08C218.589 222.685 219.364 224.583 220.889 226.118C222.659 224.178 223.786 221.81 224.135 219.297C224.759 214.652 228.278 211.31 228.449 206.609C227.534 202.503 225.69 201.386 223.767 198.993C222.22 197.234 220.431 195.669 218.444 194.337C216.893 193.395 214.897 193.248 213.046 193.489C211.433 193.693 209.788 194.326 209.24 195.061C208.894 196.242 208.742 197.276 208.778 198.713Z" fill="#662D03"/>
</g>
<path d="M221.401 217.916C221.401 217.017 221.172 210.405 221.172 208.606C221.172 203.939 225.217 200.965 225.217 200.965" stroke="#662D03" stroke-width="0.631483" stroke-linecap="round" stroke-linejoin="round"/>
<path d="M243.359 232.863C241.089 231.831 238.516 231.655 236.119 232.369" stroke="#662D03" stroke-width="0.631483" stroke-linecap="round"/>
<path d="M237.29 219.039C235.497 220.937 235.222 227.488 235.222 227.488H238.562" stroke="#662D03" stroke-width="0.631483" stroke-linecap="round" stroke-linejoin="round"/>
<path d="M251.711 213.314C248.496 213.975 245.189 214.069 241.941 213.59" stroke="#662D03" stroke-width="0.631483" stroke-linecap="round"/>
<path d="M234.152 213.314C230.937 213.975 227.63 214.069 224.382 213.59" stroke="#662D03" stroke-width="0.631483" stroke-linecap="round"/>
<path d="M246.225 216.395C244.107 216.395 244.107 220.792 246.225 220.815H246.322C248.445 220.815 248.445 216.418 246.322 216.395H246.229H246.225Z" fill="#662D03"/>
<path d="M229.181 216.395C227.062 216.42 227.062 220.79 229.181 220.815H229.278C231.397 220.815 231.397 216.42 229.278 216.395H229.181Z" fill="#662D03"/>
<path d="M220.262 253.738L226.851 270.436L239.812 262.654L252.091 270.436L258.681 250.273" stroke="#FCEFE6" stroke-width="0.631483" stroke-linecap="round" stroke-linejoin="round"/>
<path d="M121.094 446.668L189.67 349.245C191.677 346.126 197.924 343.14 205.57 343.842" stroke="white" stroke-width="0.631483" stroke-linecap="round" stroke-linejoin="round"/>
<path d="M209.942 379.047L174.395 427.95" stroke="white" stroke-width="0.631483" stroke-linecap="round" stroke-linejoin="round"/>
<path d="M265.84 276.84L271.791 293.942L285.792 289.399" stroke="#FCEFE6" stroke-width="0.631483" stroke-linecap="round" stroke-linejoin="round"/>
<path d="M32.0981 339.932V478.04C32.0981 479.533 30.7776 480.744 29.1487 480.744C27.5197 480.744 26.1992 479.533 26.1992 478.04L26.1992 337.421C26.1992 336.119 27.2017 335.033 28.5373 334.775C28.9151 334.613 29.3364 334.523 29.7807 334.523L320.325 334.523C321.954 334.523 323.274 335.734 323.274 337.228C323.274 338.721 321.954 339.932 320.325 339.932H32.0981Z" fill="#8C837C"/>
<path d="M104.191 328.411L108.604 310.74H75.4724C72.0302 310.74 69.1841 308.144 69.1841 305.002V254.952C69.1388 251.764 71.9384 249.168 75.4265 249.168H176.26C179.702 249.168 182.547 251.764 182.547 254.906V305.002C182.547 308.144 179.702 310.74 176.26 310.74H135.882L134.061 328.411H146.015C147.851 328.411 149.273 329.869 149.273 331.645C149.273 333.466 147.805 334.878 146.015 334.878H94.841C93.0052 334.878 91.5824 333.421 91.5824 331.645C91.4906 329.869 93.0052 328.411 94.841 328.411H104.191Z" fill="#666666"/>
<path fill-rule="evenodd" clip-rule="evenodd" d="M137.248 297.863L137.384 328.46H134.094L137.248 297.863Z" fill="white"/>
<path d="M199.001 144.617H152.344C148.221 144.617 144.879 147.961 144.879 152.085V175.608C144.879 179.732 148.221 183.075 152.344 183.075H199.001L207.261 185.646C208.467 186.021 209.6 184.892 209.229 183.685L206.466 174.684V152.085C206.466 147.961 203.124 144.617 199.001 144.617Z" fill="#F83131"/>
<path d="M156.29 169.074C155.362 169.074 154.548 168.853 153.847 168.411C153.151 167.969 152.607 167.351 152.214 166.557C151.826 165.763 151.632 164.835 151.632 163.773C151.632 162.702 151.826 161.767 152.214 160.968C152.607 160.17 153.151 159.549 153.847 159.108C154.548 158.666 155.362 158.445 156.29 158.445C157.218 158.445 158.03 158.666 158.727 159.108C159.427 159.549 159.971 160.17 160.36 160.968C160.752 161.767 160.949 162.702 160.949 163.773C160.949 164.835 160.752 165.763 160.36 166.557C159.971 167.351 159.427 167.969 158.727 168.411C158.03 168.853 157.218 169.074 156.29 169.074ZM156.29 167.655C156.995 167.655 157.575 167.474 158.03 167.112C158.486 166.751 158.822 166.276 159.041 165.687C159.26 165.098 159.369 164.46 159.369 163.773C159.369 163.086 159.26 162.445 159.041 161.852C158.822 161.258 158.486 160.779 158.03 160.413C157.575 160.047 156.995 159.864 156.29 159.864C155.585 159.864 155.005 160.047 154.55 160.413C154.095 160.779 153.758 161.258 153.539 161.852C153.321 162.445 153.211 163.086 153.211 163.773C153.211 164.46 153.321 165.098 153.539 165.687C153.758 166.276 154.095 166.751 154.55 167.112C155.005 167.474 155.585 167.655 156.29 167.655ZM167.536 169.074C166.608 169.074 165.794 168.853 165.093 168.411C164.397 167.969 163.853 167.351 163.46 166.557C163.072 165.763 162.878 164.835 162.878 163.773C162.878 162.702 163.072 161.767 163.46 160.968C163.853 160.17 164.397 159.549 165.093 159.108C165.794 158.666 166.608 158.445 167.536 158.445C168.464 158.445 169.276 158.666 169.973 159.108C170.673 159.549 171.217 160.17 171.606 160.968C171.998 161.767 172.195 162.702 172.195 163.773C172.195 164.835 171.998 165.763 171.606 166.557C171.217 167.351 170.673 167.969 169.973 168.411C169.276 168.853 168.464 169.074 167.536 169.074ZM167.536 167.655C168.241 167.655 168.821 167.474 169.276 167.112C169.732 166.751 170.068 166.276 170.287 165.687C170.506 165.098 170.615 164.46 170.615 163.773C170.615 163.086 170.506 162.445 170.287 161.852C170.068 161.258 169.732 160.779 169.276 160.413C168.821 160.047 168.241 159.864 167.536 159.864C166.831 159.864 166.251 160.047 165.796 160.413C165.341 160.779 165.004 161.258 164.785 161.852C164.567 162.445 164.457 163.086 164.457 163.773C164.457 164.46 164.567 165.098 164.785 165.687C165.004 166.276 165.341 166.751 165.796 167.112C166.251 167.474 166.831 167.655 167.536 167.655ZM174.606 172.715V158.579H176.132V160.212H176.319C176.435 160.033 176.596 159.806 176.801 159.529C177.011 159.248 177.31 158.998 177.698 158.78C178.091 158.557 178.622 158.445 179.291 158.445C180.157 158.445 180.92 158.661 181.58 159.094C182.24 159.527 182.756 160.141 183.126 160.935C183.496 161.729 183.682 162.666 183.682 163.746C183.682 164.835 183.496 165.778 183.126 166.577C182.756 167.371 182.243 167.987 181.587 168.424C180.931 168.857 180.174 169.074 179.318 169.074C178.657 169.074 178.129 168.964 177.731 168.746C177.334 168.522 177.029 168.27 176.814 167.989C176.6 167.704 176.435 167.467 176.319 167.28H176.185V172.715H174.606ZM176.159 163.719C176.159 164.496 176.272 165.18 176.5 165.774C176.727 166.363 177.06 166.825 177.497 167.159C177.934 167.49 178.47 167.655 179.103 167.655C179.764 167.655 180.315 167.481 180.757 167.133C181.203 166.78 181.538 166.307 181.761 165.714C181.988 165.116 182.102 164.451 182.102 163.719C182.102 162.996 181.99 162.345 181.767 161.765C181.549 161.18 181.216 160.718 180.77 160.379C180.328 160.036 179.773 159.864 179.103 159.864C178.461 159.864 177.921 160.027 177.484 160.353C177.047 160.674 176.716 161.124 176.493 161.705C176.27 162.28 176.159 162.952 176.159 163.719ZM193.373 160.881L191.954 161.283C191.865 161.046 191.733 160.817 191.559 160.593C191.39 160.366 191.158 160.179 190.863 160.031C190.569 159.884 190.192 159.81 189.732 159.81C189.103 159.81 188.579 159.955 188.159 160.245C187.744 160.531 187.537 160.895 187.537 161.336C187.537 161.729 187.68 162.039 187.965 162.267C188.251 162.494 188.697 162.684 189.304 162.836L190.83 163.21C191.749 163.434 192.434 163.775 192.884 164.234C193.335 164.69 193.56 165.276 193.56 165.995C193.56 166.584 193.391 167.11 193.052 167.574C192.717 168.038 192.249 168.404 191.646 168.672C191.044 168.94 190.343 169.074 189.545 169.074C188.496 169.074 187.628 168.846 186.941 168.391C186.254 167.936 185.819 167.271 185.636 166.396L187.135 166.022C187.278 166.575 187.548 166.99 187.945 167.266C188.347 167.543 188.871 167.681 189.518 167.681C190.254 167.681 190.839 167.525 191.271 167.213C191.709 166.896 191.927 166.517 191.927 166.075C191.927 165.718 191.802 165.419 191.553 165.178C191.303 164.933 190.919 164.75 190.401 164.629L188.688 164.228C187.746 164.005 187.055 163.659 186.613 163.19C186.176 162.717 185.957 162.126 185.957 161.417C185.957 160.837 186.12 160.324 186.446 159.877C186.776 159.431 187.224 159.081 187.791 158.827C188.362 158.572 189.009 158.445 189.732 158.445C190.749 158.445 191.548 158.668 192.128 159.114C192.713 159.561 193.128 160.15 193.373 160.881ZM198.026 155.152L197.893 165.004H196.34L196.206 155.152H198.026ZM197.116 168.966C196.786 168.966 196.503 168.848 196.266 168.612C196.03 168.375 195.911 168.092 195.911 167.762C195.911 167.432 196.03 167.148 196.266 166.912C196.503 166.675 196.786 166.557 197.116 166.557C197.446 166.557 197.73 166.675 197.966 166.912C198.203 167.148 198.321 167.432 198.321 167.762C198.321 167.98 198.265 168.181 198.154 168.364C198.046 168.547 197.901 168.694 197.719 168.806C197.54 168.913 197.339 168.966 197.116 168.966Z" fill="white"/>
<defs>
<clipPath id="clip0_4307_238684">
<rect width="195.963" height="147.507" fill="white" transform="translate(0.0429688 63.7734)"/>
</clipPath>
</defs>
</svg>
