<svg width="447" height="446" viewBox="0 0 447 446" fill="none" xmlns="http://www.w3.org/2000/svg">
<path d="M352.979 40.3438H202.75V445.349H352.979V40.3438Z" fill="#FBF6F1"/>
<g clip-path="url(#clip0_4307_243145)">
<path d="M73.9029 346.415H77.0314L89.5197 321.47C100.504 304.784 107.426 297.335 110.286 299.121C113.145 300.908 109.968 310.418 100.755 327.65L88.1893 346.415H105.262C107.977 346.415 110.179 348.617 110.179 351.333C110.179 351.435 110.176 351.537 110.169 351.639L106.497 410.65C105.783 422.132 96.2651 431.078 84.7643 431.078H70.1969C58.6962 431.078 49.1785 422.132 48.464 410.65L44.792 351.639C44.6233 348.928 46.6837 346.593 49.394 346.424C49.4957 346.418 49.5976 346.415 49.6995 346.415H65.417L42.2648 311.841C33.052 294.609 29.8753 285.1 32.7346 283.313C35.594 281.526 42.5159 288.976 53.5004 305.661L61.7049 322.05L51.9219 260.319L51.6236 225.156C59.4145 222.363 63.9234 222.672 65.15 226.081C66.8094 230.694 68.681 241.425 70.7649 258.276L72.5374 343.687L73.9029 346.415Z" fill="#EEE2D8"/>
<path d="M75.8018 335.934L91.4003 232.508L105.8 266.635L81.8162 346.386H77.6629L77.6689 346.42H70.0781L47.8984 269.519L62.475 261.088L75.8018 335.934Z" fill="#EEE2D8"/>
<path d="M70.8844 264.191C74.4667 250.513 77.9574 243.943 81.3563 244.482C84.9 245.043 86.4993 252.855 86.1541 267.916L76.9407 329.006L75.8382 335.908C75.3058 333.464 74.7679 330.707 74.2245 327.637C73.6811 324.566 72.9104 319.93 71.9124 313.726L70.8844 264.191ZM109.292 365.738L108.833 373.116H46.1283L45.6693 365.738H109.292ZM49.6995 346.417H105.262C107.977 346.417 110.179 348.619 110.179 351.335C110.179 351.437 110.176 351.539 110.169 351.641L109.707 359.064H45.2539L44.792 351.641C44.6233 348.93 46.6837 346.595 49.394 346.426C49.4957 346.42 49.5976 346.417 49.6995 346.417ZM38.0156 312.826C40.6159 283.952 43.9098 266.706 47.8975 261.085C51.8852 255.465 56.8469 255.465 62.7827 261.085C51.4224 298.066 44.4668 317.659 41.916 319.865C39.3651 322.07 38.065 319.724 38.0156 312.826ZM120.199 291.99C120.141 300.005 118.629 302.731 115.663 300.169C112.697 297.606 104.609 274.841 91.3994 231.874C98.3016 225.344 104.071 225.344 108.708 231.874C113.345 238.404 117.175 258.443 120.199 291.99ZM51.6236 231.216V224.918C56.2367 220.829 60.7389 220.909 65.13 225.158C66.0418 226.04 66.9852 230.828 67.9603 239.523L51.6236 231.216Z" fill="#FBF6F1"/>
</g>
<path d="M64.7721 149.826C62.1337 150.411 59.3881 150.292 56.8099 149.483C54.2316 148.673 51.911 147.201 50.08 145.214C48.249 143.226 46.9717 140.793 46.376 138.157C45.7802 135.522 45.8867 132.776 46.685 130.194L73.0769 45.2779C73.8658 42.6835 75.3307 40.3456 77.3213 38.5042C79.312 36.6628 81.7567 35.3841 84.4046 34.7993C87.04 34.1961 89.7882 34.3028 92.369 35.1083C94.9497 35.9139 97.2707 37.3895 99.0951 39.3848L159.436 104.685C161.265 106.674 162.539 109.109 163.131 111.745C163.723 114.381 163.612 117.127 162.809 119.707C162.006 122.287 160.539 124.611 158.555 126.445C156.571 128.28 154.14 129.561 151.505 130.16L64.8231 149.826H64.7721ZM85.4576 39.2829C83.5996 39.6877 81.8835 40.5812 80.4863 41.8709C79.089 43.1607 78.0614 44.8 77.5094 46.6196L51.1176 131.535C50.5594 133.346 50.4858 135.272 50.9042 137.12C51.3227 138.968 52.2186 140.674 53.5024 142.068C54.7862 143.462 56.413 144.495 58.2206 145.063C60.0283 145.632 61.9535 145.717 63.804 145.309L150.537 125.71C152.391 125.294 154.103 124.396 155.5 123.107C156.897 121.818 157.93 120.184 158.495 118.37C159.059 116.555 159.136 114.624 158.717 112.77C158.298 110.916 157.398 109.205 156.108 107.81L95.7663 42.4927C94.488 41.0903 92.8592 40.0537 91.0474 39.4895C89.2355 38.9254 87.3061 38.8541 85.4576 39.2829Z" fill="#EEE2D8"/>
<path d="M96.5145 117.217C96.3517 116.473 96.3407 115.703 96.4823 114.953C96.6238 114.204 96.9149 113.491 97.3382 112.857C97.7614 112.223 98.3082 111.681 98.9458 111.263C99.5834 110.845 100.299 110.56 101.049 110.424C101.782 110.227 102.548 110.181 103.299 110.288C104.051 110.395 104.773 110.653 105.422 111.046C106.071 111.44 106.633 111.961 107.076 112.578C107.518 113.195 107.831 113.895 107.995 114.636C108.173 115.378 108.199 116.148 108.074 116.901C107.948 117.654 107.673 118.373 107.265 119.018C106.856 119.662 106.323 120.218 105.695 120.653C105.068 121.087 104.36 121.392 103.613 121.548C102.862 121.747 102.079 121.792 101.31 121.681C100.541 121.569 99.8029 121.303 99.1396 120.898C98.4763 120.493 97.9018 119.959 97.4506 119.326C96.9995 118.694 96.6811 117.976 96.5145 117.217ZM86.6133 71.9573L97.2278 69.5117L103.172 103.478L96.0729 105.176L86.6133 71.9573Z" fill="#EEE2D8"/>
<path d="M190.682 233.532C182.691 233.916 176.46 240.707 176.764 248.702L179.458 319.552C179.762 327.547 186.486 333.717 194.477 333.333C202.468 332.95 208.7 326.158 208.396 318.164L205.702 247.313C205.398 239.319 198.673 233.149 190.682 233.532Z" fill="#666666" stroke="#666666" stroke-width="0.673748"/>
<path d="M211.581 424.054C211.495 416.213 205.068 409.926 197.227 410.013C189.386 410.099 183.099 416.526 183.186 424.367C183.272 432.208 189.699 438.494 197.54 438.408C205.381 438.322 211.668 431.895 211.581 424.054Z" fill="#FFB598" stroke="#FFB598" stroke-width="0.673748"/>
<path d="M180.681 426.762C180.831 425.408 181.968 424.379 183.33 424.364L210.655 424.063C211.561 424.053 212.411 424.498 212.918 425.249L218.783 433.932C218.982 434.227 219.121 434.559 219.192 434.908L220.498 441.383C220.833 443.04 219.576 444.592 217.886 444.611L181.697 445.01C180.079 445.027 178.81 443.626 178.989 442.018L180.681 426.762Z" fill="#662D03"/>
<path d="M212.948 419.859L213.314 419.873L213.298 419.507L208.912 321.786C208.549 313.694 201.761 307.391 193.664 307.627C185.542 307.864 179.123 314.592 179.269 322.716L180.98 418.292L180.986 418.61L181.304 418.623L212.948 419.859Z" fill="#666666" stroke="#666666" stroke-width="0.673748"/>
<path d="M207.742 321.572C208.053 313.951 202.127 307.52 194.506 307.208C186.884 306.897 180.453 312.823 180.141 320.444C179.83 328.066 185.756 334.497 193.378 334.809C200.999 335.12 207.431 329.194 207.742 321.572Z" fill="#666666" stroke="#666666" stroke-width="0.673748"/>
<path d="M158.649 233.806C166.34 236.012 170.848 244.051 168.719 251.763L149.851 320.108C147.722 327.82 139.762 332.284 132.072 330.078C124.382 327.873 119.874 319.833 122.003 312.122L140.87 243.776C142.999 236.064 150.959 231.601 158.649 233.806Z" fill="#666666" stroke="#666666" stroke-width="0.673748"/>
<path d="M94.4574 415.254C95.9422 407.554 103.388 402.516 111.088 404.001C118.787 405.486 123.826 412.932 122.341 420.631C120.856 428.331 113.41 433.369 105.711 431.884C98.0107 430.4 92.9725 422.954 94.4574 415.254Z" fill="#FFB598" stroke="#FFB598" stroke-width="0.673748"/>
<path d="M124.708 423.857C124.99 422.396 124.034 420.982 122.573 420.701L92.1659 414.837C91.5181 414.712 90.847 414.829 90.2797 415.166L70.5534 426.879C68.4223 428.144 68.9854 431.373 71.419 431.843L118.667 440.954C120.128 441.236 121.542 440.279 121.823 438.818L124.708 423.857Z" fill="#662D03"/>
<path d="M94.4618 409.279L94.1023 409.209L94.2022 408.856L120.666 315.531C122.876 307.738 130.929 303.159 138.756 305.245C146.607 307.339 151.313 315.359 149.309 323.234L125.934 415.099L125.855 415.407L125.543 415.346L94.4618 409.279Z" fill="#666666" stroke="#666666" stroke-width="0.673748"/>
<path d="M121.855 315.589C123.299 308.099 130.542 303.198 138.032 304.643C145.522 306.087 150.423 313.33 148.979 320.82C147.534 328.31 140.292 333.211 132.801 331.767C125.311 330.322 120.41 323.079 121.855 315.589Z" fill="#666666" stroke="#666666" stroke-width="0.673748"/>
<path d="M205.744 255.503H206.081V255.166V208.498C206.081 199.382 198.691 191.991 189.574 191.991H156.861C147.745 191.991 140.355 199.382 140.355 208.498V255.166V255.503H140.691H205.744Z" fill="#666666" stroke="#666666" stroke-width="0.673748"/>
<path d="M200.691 150.12C196.467 155.076 197.026 162.557 201.94 166.83C206.854 171.103 214.262 170.549 218.485 165.593L251.184 127.227C255.407 122.271 254.848 114.789 249.934 110.517C245.02 106.244 237.613 106.797 233.389 111.754L200.691 150.12Z" fill="#FFB598" stroke="#FFB598" stroke-width="0.673748"/>
<mask id="mask0_4307_243145" style="mask-type:alpha" maskUnits="userSpaceOnUse" x="197" y="107" width="58" height="64">
<path d="M200.695 150.124C196.471 155.08 197.03 162.561 201.944 166.834C206.858 171.107 214.266 170.553 218.489 165.597L251.188 127.231C255.411 122.275 254.852 114.793 249.938 110.52C245.024 106.248 237.617 106.801 233.393 111.757L200.695 150.124Z" fill="#F8DAC3" stroke="#F8DAC3" stroke-width="0.673748"/>
</mask>
<g mask="url(#mask0_4307_243145)">
<path d="M200.708 168.124C195.075 163.261 194.303 154.923 198.984 149.502L217.5 125.93L236.984 147.337L219.383 167.114C214.702 172.535 206.341 172.988 200.708 168.124Z" fill="#ED9D63"/>
</g>
<path d="M245.333 103.828L190.053 83.3362L181.101 108.028L237.069 126.622C243.348 128.708 250.19 125.394 252.444 119.175C254.699 112.956 251.535 106.127 245.333 103.828Z" fill="#FFB598" stroke="#FFB598" stroke-width="0.673748"/>
<circle r="12.2606" transform="matrix(0.45145 -0.892296 -0.892296 -0.45145 244.079 116.209)" fill="#FFB598" stroke="#FFB598" stroke-width="0.673748"/>
<path d="M200.336 90.8792C203.109 98.0939 201.339 103.441 194.012 107.815C186.686 112.189 181.337 110.75 174.423 103.278C169.335 97.7794 163.162 90.1645 162.536 85.3598C162.285 83.4294 162.922 81.0956 164.564 80.7254C166.206 80.3552 167.013 81.9792 167.732 83.9143C168.545 86.1015 170.154 88.7674 171.962 88.3233C173.029 88.0613 173.772 86.069 173.296 84.6054C172.515 82.204 171.521 80.3693 170.087 78.1382C169.106 76.6116 168.197 75.2643 167.533 74.299C167.201 73.8167 166.932 73.431 166.746 73.1671L166.48 72.7906C165.301 70.9952 165.724 69.189 167.005 68.2704C169.464 66.5074 171.179 68.804 171.41 69.1394C171.12 68.7075 170.889 68.368 170.73 68.136C170.648 68.0165 170.544 67.8655 170.544 67.8655C169.64 66.5736 170.007 65.1526 171.229 64.2716C172.45 63.3906 174.047 63.7984 174.835 64.4971C175.623 65.1957 176.488 66.4315 176.488 66.4315C178.73 64.2889 181.058 65.0297 182.069 66.0431C183.081 67.0565 184.15 68.5208 185.434 70.597C185.627 70.9085 185.756 71.1247 185.92 71.3991C186.098 70.9611 186.4 70.5677 186.817 70.2766C187.965 69.4735 189.177 70.0168 190.143 71.1101C191.109 72.2034 193.959 76.4217 195.333 79.2477C196.706 82.0737 197.562 83.6644 200.336 90.8792Z" fill="#FFB598"/>
<path d="M185.92 71.3991C186.098 70.9611 186.4 70.5677 186.817 70.2766C187.965 69.4735 189.177 70.0168 190.143 71.1101C191.109 72.2034 193.959 76.4217 195.333 79.2477C196.706 82.0737 197.562 83.6644 200.336 90.8792C203.109 98.0939 201.339 103.441 194.012 107.815C186.686 112.189 181.337 110.75 174.423 103.278C169.335 97.7794 163.162 90.1645 162.536 85.3598C162.285 83.4294 162.922 81.0956 164.564 80.7254C166.206 80.3552 167.013 81.9792 167.732 83.9143C168.545 86.1015 170.154 88.7675 171.962 88.3233C173.029 88.0613 173.772 86.069 173.296 84.6054C172.515 82.204 171.521 80.3693 170.087 78.1382C169.106 76.6116 168.197 75.2643 167.533 74.299C167.201 73.8167 166.932 73.431 166.746 73.1671L166.48 72.7906C165.301 70.9952 165.724 69.189 167.005 68.2704C169.652 66.3725 171.437 69.1793 171.437 69.1793M185.92 71.3991C185.756 71.1247 185.627 70.9085 185.434 70.597C184.15 68.5208 183.081 67.0565 182.069 66.0431C181.058 65.0297 178.73 64.2889 176.488 66.4315M185.92 71.3991C187.271 73.5935 189.621 77.6094 190.048 78.7612M176.488 66.4315C176.488 66.4315 178.815 69.7093 179.107 70.1435M176.488 66.4315C176.488 66.4315 178.077 68.7077 179.107 70.1435M176.488 66.4315C176.488 66.4315 175.623 65.1957 174.835 64.4971C174.047 63.7984 172.45 63.3906 171.229 64.2716C170.007 65.1526 169.64 66.5736 170.544 67.8654C170.544 67.8654 170.648 68.0165 170.73 68.136C170.894 68.3751 171.134 68.7284 171.437 69.1793M179.107 70.1435C181.077 73.1255 182.306 75.2002 184.004 78.3453M171.437 69.1793C172.041 70.0815 172.891 71.3722 173.867 72.9183C173.867 72.9183 176.846 77.747 178.366 80.5232M171.437 69.1793C171.437 69.1793 171.675 69.544 171.773 69.6835C171.969 69.9624 172.181 70.326 172.526 70.827C173.214 71.828 175.106 74.9107 175.106 74.9107" stroke="#FFB598" stroke-width="0.673748" stroke-linecap="round" stroke-linejoin="round"/>
<path d="M186.272 71.2601C187.65 73.1755 190.316 77.2863 189.965 78.4058M176.957 67.0664C179.399 70.0698 184.341 76.7895 184.561 79.6409M179.694 83.0082C178.406 80.0919 174.834 73.1345 170.845 68.6349" stroke="#ED9D63" stroke-width="0.673748" stroke-linecap="round" stroke-linejoin="round"/>
<path d="M217.271 126.417L217.544 126.094L217.797 126.433L234.249 148.404L234.409 148.617L234.238 148.821L217.786 168.512L217.786 168.512L217.782 168.517C212.797 174.29 204.076 174.93 198.302 169.945C192.528 164.96 191.889 156.239 196.873 150.465C196.873 150.465 196.873 150.465 196.874 150.464L217.271 126.417Z" fill="#04009A" stroke="#04009A" stroke-width="0.673748"/>
<path fill-rule="evenodd" clip-rule="evenodd" d="M172.531 139.489L132.032 145.94C129.842 146.289 128.342 148.336 128.67 150.529L136.057 201.567C136.057 201.567 140.217 196.089 142.267 192.214C144.464 188.061 145.966 183.489 146.808 180.535C147.33 178.705 148.98 177.383 150.882 177.383H195.119C196.876 177.383 198.431 178.516 199.054 180.159C200.043 182.766 201.678 186.63 203.51 189.142C207.114 194.085 211.11 196.645 211.11 196.645L217.77 150.63C218.097 148.44 216.602 146.395 214.416 146.042L173.811 139.49C173.387 139.422 172.955 139.421 172.531 139.489Z" fill="#04009A"/>
<path d="M140.675 230.868C140.675 230.868 169.47 233.186 182.257 233.186C195.045 233.186 205.777 230.868 205.777 230.868L211.11 196.645C211.11 196.645 207.114 194.085 203.51 189.142C201.678 186.63 200.043 182.766 199.054 180.159C198.431 178.516 196.876 177.383 195.119 177.383H150.882C148.98 177.383 147.33 178.705 146.808 180.535C145.966 183.489 144.464 188.061 142.267 192.214C140.217 196.089 136.057 201.567 136.057 201.567L140.675 230.868Z" fill="#666666"/>
<path d="M192.406 197.344L156.879 198.18L157.262 214.483L176.582 222.085L192.766 212.641L192.406 197.344Z" stroke="#FCEFE6" stroke-width="0.673748" stroke-linecap="round" stroke-linejoin="round" stroke-dasharray="4.72 4.72"/>
<path d="M206.521 231.236L216.667 162.179L222.418 157.406" stroke="#FCEFE6" stroke-width="0.673748" stroke-linecap="round" stroke-linejoin="round"/>
<path d="M162.751 130.571C162.751 124.789 167.438 120.102 173.219 120.102C179.001 120.102 183.688 124.789 183.688 130.571V140.79C183.688 146.571 179.001 151.258 173.219 151.258C167.438 151.258 162.751 146.571 162.751 140.79V130.571Z" fill="#FFB598" stroke="#FFB598" stroke-width="0.673748"/>
<mask id="mask1_4307_243145" style="mask-type:alpha" maskUnits="userSpaceOnUse" x="162" y="119" width="23" height="33">
<path d="M162.755 130.567C162.755 124.786 167.442 120.099 173.223 120.099C179.005 120.099 183.692 124.786 183.692 130.567V140.786C183.692 146.567 179.005 151.254 173.223 151.254C167.442 151.254 162.755 146.567 162.755 140.786V130.567Z" fill="#F8DAC3" stroke="#F8DAC3" stroke-width="0.673748"/>
</mask>
<g mask="url(#mask1_4307_243145)">
<path d="M145.715 88.4755C145.715 76.2223 155.648 66.2891 167.901 66.2891C180.154 66.2891 190.088 76.2223 190.088 88.4755V112.576C190.088 124.829 180.154 134.762 167.901 134.762C155.648 134.762 145.715 124.829 145.715 112.576V88.4755Z" fill="#ED9D63"/>
</g>
<path d="M135.964 91.9474C136.021 92.1481 136.085 92.3445 136.156 92.54C136.531 93.5411 137.054 94.4843 137.708 95.3409L137.743 95.386C137.991 95.7081 138.253 96.0284 138.534 96.3466C139.274 97.1609 140.068 97.9293 140.909 98.6472L141.412 99.0689C141.751 99.3554 142.092 99.6345 142.434 99.9101C140.782 99.7569 139.396 101.384 139.297 102.972C139.199 104.561 140.035 106.051 141.001 107.342C142.696 109.629 144.911 111.02 146.944 112.94C148.467 114.369 149.431 116.16 151.064 117.505L151.186 117.606C155.481 121.003 161.638 121.177 166.872 122.219C168.752 122.598 176.815 131.87 186.461 126.938C188.609 125.839 190.937 124.733 193.09 122.219C200.821 113.269 202.02 98.2818 195.595 88.4276C188.686 77.8222 175.783 70.4149 167.061 70.1304C158.34 69.8459 154.442 69.9521 151.083 72.0522C147.725 74.1523 146.576 79.5512 149.832 81.7283C147.814 80.6047 145.427 80.2391 143.129 80.7013C141.001 81.0878 139.085 82.2025 137.737 83.8377C136.671 85.1444 135.978 86.6936 135.727 88.3303C135.541 89.5411 135.622 90.7735 135.964 91.9474Z" fill="#934103"/>
<path d="M185.418 106.488C185.04 103.348 187.28 100.496 190.42 100.118C193.56 99.7404 196.412 101.98 196.79 105.12C197.167 108.26 194.928 111.112 191.788 111.49C188.648 111.868 185.796 109.628 185.418 106.488Z" fill="#FFB598" stroke="#FFB598" stroke-width="0.673748"/>
<path d="M145.07 111.339C144.693 108.199 146.932 105.347 150.072 104.97C153.213 104.592 156.064 106.831 156.442 109.972C156.82 113.112 154.58 115.964 151.44 116.341C148.3 116.719 145.448 114.48 145.07 111.339Z" fill="#FFB598" stroke="#FFB598" stroke-width="0.673748"/>
<path d="M147.727 109.047C148.341 109.492 149.575 110.632 149.595 111.627" stroke="#662D03" stroke-width="0.673748" stroke-linecap="round" stroke-linejoin="round"/>
<path d="M193.793 103.797C192.832 103.912 192.373 105.775 192.589 106.747" stroke="#662D03" stroke-width="0.673748" stroke-linecap="round" stroke-linejoin="round"/>
<path d="M150.254 98.2336C148.66 84.9854 160.648 74.1437 173.67 77.0559C181.667 78.8443 187.668 85.4797 188.647 93.6157L190.672 110.452C191.947 121.054 184.386 130.682 173.784 131.957C163.183 133.232 153.554 125.672 152.279 115.07L150.254 98.2336Z" fill="#FFB598" stroke="#FFB598" stroke-width="0.673748"/>
<mask id="mask2_4307_243145" style="mask-type:alpha" maskUnits="userSpaceOnUse" x="124" y="58" width="74" height="54">
<path d="M150.634 104.63C150.634 104.63 149.754 98.6269 149.99 96.8587C150.43 93.5623 152.994 92.009 153.565 90.9676C159.934 96.8806 173.61 101.802 183.814 98.0867C184.28 101.965 187.083 108.95 188.838 108.738C190.594 108.527 190.148 99.2829 192.497 99.5302C196.177 92.0918 203.603 79.7404 189.303 72.9716L190.208 71.2824L192.04 69.8654C190.2 68.2546 184.042 68.1427 182.699 70.752C182.699 70.752 178.897 63.1895 165.673 59.2705C150.368 54.7349 131.062 75.1007 131.062 75.1007L124.894 91.0949L144.7 111.248C144.7 111.248 144.063 108.152 147.208 105.725C148.669 104.597 150.634 104.63 150.634 104.63Z" fill="#D9D9D9"/>
</mask>
<g mask="url(#mask2_4307_243145)">
<path d="M135.753 91.0783C135.81 91.2836 135.874 91.4844 135.946 91.6844C136.321 92.7082 136.843 93.6734 137.494 94.5508L137.529 94.5969C137.776 94.9268 138.037 95.2549 138.316 95.5809C139.053 96.4153 139.843 97.203 140.68 97.9393L141.179 98.3719C141.517 98.6657 141.856 98.952 142.196 99.2348C140.558 99.0722 139.19 100.729 139.098 102.351C139.006 103.973 139.84 105.498 140.803 106.82C142.492 109.163 144.693 110.591 146.715 112.559C148.229 114.024 149.192 115.857 150.816 117.237L150.937 117.341C155.208 120.825 161.312 121.026 166.504 122.109C168.37 122.503 188.462 125.624 188.605 126.815C188.574 126.556 190.253 124.459 192.377 121.899C200.009 112.787 201.261 97.7899 194.855 87.7018C187.967 76.8447 176.208 70.2415 166.501 68.9095C156.794 67.5774 153.99 68.6812 150.669 70.8138C147.347 72.9464 146.228 78.4564 149.464 80.6919C147.459 79.5369 145.091 79.1547 142.815 79.6184C140.707 80.0054 138.811 81.1369 137.481 82.802C136.429 84.1328 135.747 85.7124 135.505 87.3832C135.325 88.6192 135.409 89.8781 135.753 91.0783Z" fill="#934103"/>
<path d="M135.615 90.6754C135.667 91.033 135.702 91.3769 135.78 91.5858C136.067 92.669 136.773 94.1819 137.047 94.5254C137.321 94.8688 138.049 95.8587 138.36 96.1978C139.173 97.071 140.34 98.1568 140.34 98.1568C140.34 98.1568 141.3 99.0163 141.679 99.3096C140.627 99.2321 139.036 100.966 138.918 102.667C138.8 104.368 139.722 105.958 140.791 107.336C142.666 109.776 145.123 111.253 147.375 113.297C149.061 114.819 150.125 116.731 151.935 118.162C153.563 115.882 154.455 113.231 154.505 110.524C154.574 105.524 157.876 101.535 157.458 96.5333C155.966 92.3008 153.87 91.3519 151.528 89.0625C149.665 87.3968 147.57 85.9669 145.296 84.809C143.533 84.0084 141.4 84.1068 139.47 84.5988C137.787 85.0196 136.126 85.8997 135.639 86.7481C135.423 88.0437 135.394 89.1577 135.615 90.6754Z" fill="#662D03"/>
</g>
<path d="M176.574 122.742C174.135 121.678 171.388 121.531 168.842 122.331" stroke="#662D03" stroke-width="0.673748" stroke-linecap="round"/>
<path d="M170.981 107.772C173.137 109.333 174.333 115.615 174.333 115.615L170.805 116.121" stroke="#662D03" stroke-width="0.673748" stroke-linecap="round" stroke-linejoin="round"/>
<path d="M183.962 101.27C180.296 100.225 176.78 100.604 173.576 102.391" stroke="#662D03" stroke-width="0.673748" stroke-linecap="round"/>
<path d="M166.221 103.554C164.708 105.249 160.867 105.249 154.803 105.249" stroke="#662D03" stroke-width="0.673748" stroke-linecap="round"/>
<path d="M179.258 103.997C177.009 104.224 177.48 108.892 179.732 108.69L179.835 108.68C182.087 108.452 181.616 103.784 179.361 103.987L179.262 103.997L179.258 103.997Z" fill="#662D03"/>
<path d="M160.968 107.102C158.721 107.356 159.19 111.996 161.441 111.795L161.545 111.785C163.794 111.558 163.323 106.892 161.071 107.092L160.968 107.102Z" fill="#662D03"/>
<path d="M151.434 109.419C151.319 108.467 150.234 101.492 150.005 99.5864C149.41 94.6427 153.316 90.9768 153.316 90.9768" stroke="#662D03" stroke-width="0.673748" stroke-linecap="round" stroke-linejoin="round"/>
<path d="M168.481 255.638C169.172 255.694 167.545 255.607 168.481 255.638ZM168.481 255.638C172.871 255.786 180.55 255.404 183.56 253.648M168.481 255.638L165.437 265.245" stroke="white" stroke-width="0.673748" stroke-linecap="round" stroke-linejoin="round"/>
<path d="M123.507 157.197C126.562 151.446 133.725 149.215 139.506 152.213C145.286 155.211 147.495 162.304 144.44 168.054L120.787 212.57C117.731 218.32 110.568 220.551 104.788 217.553C99.0073 214.555 96.7982 207.463 99.8537 201.713L123.507 157.197Z" fill="#FFB598" stroke="#FFB598" stroke-width="0.673748"/>
<mask id="mask3_4307_243145" style="mask-type:alpha" maskUnits="userSpaceOnUse" x="98" y="150" width="49" height="70">
<path d="M123.503 157.197C126.559 151.446 133.722 149.215 139.502 152.213C145.282 155.211 147.492 162.304 144.436 168.054L120.783 212.57C117.727 218.32 110.564 220.551 104.784 217.553C99.0034 214.555 96.7943 207.463 99.8498 201.713L123.503 157.197Z" fill="#F8DAC3" stroke="#F8DAC3" stroke-width="0.673748"/>
</mask>
<g mask="url(#mask3_4307_243145)">
<path d="M140.417 149.943C133.823 146.494 125.798 148.818 122.494 155.136L108.012 181.882L132.632 193.792L146.373 167.628C149.678 161.311 147.012 153.393 140.417 149.943Z" fill="#ED9D63"/>
</g>
<path d="M121.883 200.48L171.334 232.579L150 247.777L108.964 220.628C103.42 216.96 101.884 209.446 105.543 203.897C109.137 198.446 116.408 196.926 121.883 200.48Z" fill="#FFB598" stroke="#FFB598" stroke-width="0.673748"/>
<circle cx="112.831" cy="208.969" r="12.2606" transform="rotate(-63.5095 112.831 208.969)" fill="#FFB598" stroke="#FFB598" stroke-width="0.673748"/>
<path d="M156.683 261.698L202.692 231.45C204.323 232.546 206.257 233.1 208.221 233.036C210.185 232.971 212.078 232.29 213.634 231.089C215.189 229.889 216.327 228.229 216.887 226.346C217.447 224.462 217.401 222.451 216.754 220.595L210.419 224.551C209.796 224.94 208.976 224.759 208.576 224.143L207.587 222.621C207.176 221.989 207.363 221.144 208.002 220.744L214.306 216.803C212.862 215.468 211.033 214.622 209.08 214.385C207.128 214.148 205.15 214.532 203.428 215.483C201.706 216.433 200.327 217.902 199.486 219.68C198.646 221.459 198.387 223.457 198.746 225.391L152.681 255.641C151.05 254.545 149.116 253.991 147.152 254.055C145.188 254.12 143.294 254.801 141.739 256.002C140.184 257.202 139.045 258.862 138.485 260.745C137.925 262.629 137.972 264.64 138.619 266.496L145.241 262.068C145.866 261.65 146.712 261.824 147.12 262.455L148.113 263.986C148.514 264.604 148.344 265.429 147.731 265.839L141.078 270.288C142.521 271.625 144.349 272.474 146.302 272.712C148.255 272.951 150.234 272.567 151.957 271.615C153.679 270.664 155.058 269.194 155.896 267.414C156.734 265.634 156.99 263.634 156.626 261.7L156.683 261.698Z" fill="#FFB131"/>
<path d="M192.44 242.43C192.44 242.43 196.959 245.664 196.959 248.67C196.959 251.677 191.574 254.92 187.921 255.129C184.268 255.339 183.612 251.257 184.259 249.107C184.906 246.957 192.44 242.43 192.44 242.43Z" fill="#FFB598"/>
<path d="M154.998 222.719C154.998 222.719 168.361 227.405 171.926 226.971C175.49 226.536 181.28 223.976 183.957 224.826C186.635 225.677 193.981 237.084 194.65 239.092C195.32 241.101 189.304 248.229 187.965 249.342C186.626 250.455 182.392 254.915 181.506 255.358C180.619 255.801 174.82 260.931 171.926 260.931C169.031 260.931 164.345 259.637 163.675 257.583C163.223 256.471 163.675 254.695 163.675 254.695L150.775 248.673C150.775 248.673 135.161 237.704 130.711 230.576C126.26 223.447 154.998 222.719 154.998 222.719Z" fill="#FFB598"/>
<path d="M172.566 247.781C173.356 247.886 174.09 248.249 174.652 248.813C175.215 249.378 175.576 250.112 175.678 250.902C176.131 253.797 175.009 258.926 175.009 258.926" stroke="#ED9D63" stroke-width="0.846591" stroke-linecap="round" stroke-linejoin="round"/>
<path d="M177.688 243.551C177.688 243.551 180.809 243.777 180.809 246.672L180.809 254.696" stroke="#ED9D63" stroke-width="0.846591" stroke-linecap="round" stroke-linejoin="round"/>
<path d="M181.035 235.531C181.035 235.531 186.412 238.847 186.856 241.299C187.102 243.445 187.102 245.904 186.856 248.05M193.442 242.631C191.068 245.646 187.053 250.932 183.919 253.668" stroke="#ED9D63" stroke-width="0.846591" stroke-linecap="round" stroke-linejoin="round"/>
<path d="M107.714 181.074L107.524 181.429L107.907 181.553L134.3 190.145L134.573 190.234L134.704 189.979L146.898 166.321C146.898 166.321 146.898 166.321 146.898 166.32C150.434 159.561 147.821 151.216 141.062 147.681C134.304 144.145 125.959 146.757 122.422 153.515C122.422 153.515 122.422 153.516 122.422 153.516L107.714 181.074Z" fill="#04009A" stroke="#04009A" stroke-width="0.673748"/>
<path d="M147.523 147.328L154.947 187.044" stroke="#666666" stroke-width="10.1062" stroke-linecap="square" stroke-linejoin="round"/>
<path d="M148.934 181.889L149.897 186.284L156.022 189.084L159.347 185.059L158.7 177.996" stroke="#FCEFE6" stroke-width="0.673748" stroke-linecap="round" stroke-linejoin="round"/>
<path d="M194.676 146.293L191.469 186.569" stroke="#666666" stroke-width="10.1062" stroke-linecap="square" stroke-linejoin="round"/>
<path d="M198.531 159.113L196.049 185.849L190.233 189.244L186.524 185.569L186.467 178.477" stroke="#FCEFE6" stroke-width="0.673748" stroke-linecap="round" stroke-linejoin="round"/>
<rect x="328.996" y="301.242" width="101.548" height="140.111" fill="#666666"/>
<rect x="313.566" y="265.25" width="132.561" height="36.5022" rx="1.34263" fill="#8C837C"/>
<path d="M334.699 296.69C334.699 295.949 335.3 295.348 336.042 295.348H386.509C387.25 295.348 387.852 295.949 387.852 296.69V301.752H334.699V296.69Z" fill="white"/>
<rect x="398.098" y="278.699" width="24.9752" height="3.84234" rx="0.335658" fill="white"/>
<circle cx="320.609" cy="272.296" r="1.92117" fill="#F83131"/>
<circle cx="333.421" cy="272.296" r="1.92117" fill="#00A76F"/>
<circle cx="327.011" cy="272.296" r="1.92117" fill="#FFDC23"/>
<circle cx="430.756" cy="280.619" r="5.12312" fill="white"/>
<rect x="313.566" y="309.445" width="132.561" height="36.5022" rx="1.34263" fill="#8C837C"/>
<path d="M334.699 340.886C334.699 340.144 335.3 339.543 336.042 339.543H386.509C387.25 339.543 387.852 340.144 387.852 340.886V345.947H334.699V340.886Z" fill="white"/>
<rect x="398.098" y="322.895" width="24.9752" height="3.84234" rx="0.335658" fill="white"/>
<circle cx="320.609" cy="316.491" r="1.92117" fill="#F83131"/>
<circle cx="333.421" cy="316.491" r="1.92117" fill="#00A76F"/>
<circle cx="327.011" cy="316.491" r="1.92117" fill="#FFDC23"/>
<circle cx="430.756" cy="324.815" r="5.12312" fill="white"/>
<rect x="313.566" y="353.641" width="132.561" height="36.5022" rx="1.34263" fill="#8C837C"/>
<path d="M334.699 385.081C334.699 384.339 335.3 383.738 336.042 383.738H386.509C387.25 383.738 387.852 384.339 387.852 385.081V390.142H334.699V385.081Z" fill="white"/>
<rect x="398.098" y="367.09" width="24.9752" height="3.84234" rx="0.335658" fill="white"/>
<circle cx="320.609" cy="360.687" r="1.92117" fill="#F83131"/>
<circle cx="333.421" cy="360.687" r="1.92117" fill="#00A76F"/>
<circle cx="327.011" cy="360.687" r="1.92117" fill="#FFDC23"/>
<circle cx="430.756" cy="369.01" r="5.12312" fill="white"/>
<rect x="313.566" y="397.84" width="132.561" height="36.5022" rx="1.34263" fill="#8C837C"/>
<path d="M334.699 429.28C334.699 428.539 335.3 427.938 336.042 427.938H386.509C387.25 427.938 387.852 428.539 387.852 429.28V434.341H334.699V429.28Z" fill="white"/>
<rect x="398.098" y="411.289" width="24.9752" height="3.84234" rx="0.335658" fill="white"/>
<circle cx="320.609" cy="404.89" r="1.92117" fill="#F83131"/>
<circle cx="333.421" cy="404.89" r="1.92117" fill="#00A76F"/>
<circle cx="327.011" cy="404.89" r="1.92117" fill="#FFDC23"/>
<circle cx="430.756" cy="413.209" r="5.12312" fill="white"/>
<rect width="30.8501" height="30.8501" rx="1.23031" transform="matrix(-1 0 0 1 267.297 330.805)" fill="#8C837C"/>
<path opacity="0.1" fill-rule="evenodd" clip-rule="evenodd" d="M242.444 330.805C244.265 342.999 254.658 352.393 267.297 352.657V332.035C267.297 331.356 266.746 330.805 266.067 330.805H242.444Z" fill="white"/>
<rect width="22.4364" height="22.4364" rx="9.53486" transform="matrix(-1 0 0 1 263.09 335.012)" fill="#666666"/>
<rect width="4.20683" height="4.20683" rx="2.10341" transform="matrix(-1 0 0 1 257.48 344.125)" fill="#333333"/>
<rect width="4.20683" height="4.20683" rx="2.10341" transform="matrix(-1 0 0 1 250.469 344.125)" fill="#333333"/>
<path fill-rule="evenodd" clip-rule="evenodd" d="M313.566 375.521H256.365C250.889 375.521 246.45 379.961 246.45 385.437C246.45 390.913 250.889 395.352 256.365 395.352H279.957V395.354H290.431C295.249 395.354 299.155 399.26 299.155 404.077C299.155 408.895 295.249 412.801 290.431 412.801L244.156 412.801V410.779L290.431 410.779C294.133 410.779 297.133 407.779 297.133 404.077C297.133 400.376 294.133 397.376 290.431 397.376L278.618 397.376V397.373H256.365C249.773 397.373 244.429 392.029 244.429 385.437C244.429 378.844 249.773 373.5 256.365 373.5H313.566V375.521Z" fill="#666666"/>
<path d="M233.875 406.645H227.448C226.738 406.645 226.162 407.22 226.162 407.93C226.162 408.64 226.738 409.215 227.448 409.215H233.875V406.645Z" fill="#666666"/>
<path d="M233.875 414.355H227.448C226.738 414.355 226.162 414.931 226.162 415.641C226.162 416.351 226.738 416.926 227.448 416.926H233.875V414.355Z" fill="#666666"/>
<path d="M250.582 409.548C250.582 406.846 248.392 404.656 245.691 404.656H236.81V418.655H245.691C248.392 418.655 250.582 416.465 250.582 413.763V409.548Z" fill="#8C837C"/>
<rect width="3.85626" height="17.9959" rx="0.489148" transform="matrix(-1 0 0 1 237.727 402.789)" fill="#8C837C"/>
<rect width="1.28078" height="7.68468" rx="0.64039" transform="matrix(-1 0 0 1 230.016 387.367)" fill="#007AFF"/>
<rect width="1.28078" height="7.68468" rx="0.64039" transform="matrix(4.37114e-08 -1 -1 -4.37114e-08 224.25 400.816)" fill="#007AFF"/>
<rect width="1.28078" height="7.68468" rx="0.64039" transform="matrix(0.707107 -0.707107 -0.707107 -0.707107 225.27 396.906)" fill="#007AFF"/>
<rect width="1.28078" height="7.68468" rx="0.64039" transform="matrix(1 0 0 -1 238.418 438.09)" fill="#007AFF"/>
<rect width="1.28078" height="7.68468" rx="0.64039" transform="matrix(-4.37114e-08 1 1 4.37114e-08 244.184 424.641)" fill="#007AFF"/>
<rect width="1.28078" height="7.68468" rx="0.64039" transform="matrix(-0.707107 0.707107 0.707107 0.707107 243.164 428.551)" fill="#007AFF"/>
<defs>
<clipPath id="clip0_4307_243145">
<rect width="132.055" height="229.748" fill="white" transform="translate(11.4531 201.332)"/>
</clipPath>
</defs>
</svg>
